<svg width="172" height="41" viewBox="0 0 172 41" fill="none" xmlns="http://www.w3.org/2000/svg">
<path d="M171.661 25.9502H18.6609V41L106.661 32.8963L171.661 25.9502Z" fill="white" fill-opacity="0.31"/>
<path d="M171.661 25.9502H18.6609V41L106.661 32.8963L171.661 25.9502Z" fill="white" fill-opacity="0.31"/>
<g clip-path="url(#clip0_128_3)">
<path d="M26.6884 6.78196C26.6884 6.78196 28.1531 6.1153 28.8201 6.60308C29.4865 7.09385 29.3955 7.80435 29.9734 7.7595C29.9734 7.7595 27.7542 8.24878 27.2663 7.66982C26.7784 7.09385 26.6884 6.91448 26.6884 6.91448" fill="#00A651"/>
<path d="M26.6884 6.78196C26.6884 6.78196 28.1531 6.1153 28.8201 6.60308C29.4865 7.09385 29.3955 7.80435 29.9734 7.7595C29.9734 7.7595 27.7542 8.24878 27.2663 7.66982C26.7784 7.09385 26.6884 6.91448 26.6884 6.91448" stroke="black" stroke-opacity="0.17" stroke-width="2.35452" stroke-miterlimit="4.8"/>
<path d="M26.419 7.39644C26.419 7.39644 27.3829 8.68738 27.0496 9.44322C26.7174 10.2 26.0042 10.2648 26.1728 10.8199C26.1728 10.8199 25.2189 8.75465 25.6769 8.15178C26.135 7.5529 26.2882 7.42734 26.2882 7.42734" fill="#00A651"/>
<path d="M26.419 7.39644C26.419 7.39644 27.3829 8.68738 27.0496 9.44322C26.7174 10.2 26.0042 10.2648 26.1728 10.8199C26.1728 10.8199 25.2189 8.75465 25.6769 8.15178C26.135 7.5529 26.2882 7.42734 26.2882 7.42734" stroke="black" stroke-opacity="0.17" stroke-width="2.35452" stroke-miterlimit="4.8"/>
<path d="M28.0438 3.82158C28.0438 3.82158 29.5816 4.29938 29.7537 5.10653C29.9302 5.91468 29.3896 6.38802 29.8502 6.73878C29.8502 6.73878 27.8682 5.6262 27.8866 4.86788C27.9055 4.11105 27.9542 3.91973 27.9542 3.91973" fill="#00A651"/>
<path d="M28.0438 3.82158C28.0438 3.82158 29.5816 4.29938 29.7537 5.10653C29.9302 5.91468 29.3896 6.38802 29.8502 6.73878C29.8502 6.73878 27.8682 5.6262 27.8866 4.86788C27.9055 4.11105 27.9542 3.91973 27.9542 3.91973" stroke="black" stroke-opacity="0.17" stroke-width="2.35452" stroke-miterlimit="4.8"/>
<path d="M27.1402 4.35303C27.1402 4.35303 26.411 2.91361 26.8701 2.22803C27.3282 1.53747 28.0439 1.59676 27.9732 1.02229C27.9732 1.02229 28.5591 3.22103 28.0036 3.73621C27.447 4.24691 27.273 4.34556 27.273 4.34556" fill="#00A651"/>
<path d="M27.1402 4.35303C27.1402 4.35303 26.411 2.91361 26.8701 2.22803C27.3282 1.53747 28.0439 1.59676 27.9732 1.02229C27.9732 1.02229 28.5591 3.22103 28.0036 3.73621C27.447 4.24691 27.273 4.34556 27.273 4.34556" stroke="black" stroke-opacity="0.17" stroke-width="2.35452" stroke-miterlimit="4.8"/>
<path d="M28.6488 3.82987C28.6488 3.82987 28.6135 2.22056 29.3252 1.80004C30.036 1.37853 30.6552 1.74125 30.8412 1.1907C30.8412 1.1907 30.4159 3.42829 29.6918 3.652C28.9681 3.87023 28.7687 3.88319 28.7687 3.88319" fill="#00A651"/>
<path d="M28.6488 3.82987C28.6488 3.82987 28.6135 2.22056 29.3252 1.80004C30.036 1.37853 30.6552 1.74125 30.8412 1.1907C30.8412 1.1907 30.4159 3.42829 29.6918 3.652C28.9681 3.87023 28.7687 3.88319 28.7687 3.88319" stroke="black" stroke-opacity="0.17" stroke-width="2.35452" stroke-miterlimit="4.8"/>
<path d="M26.0211 6.51207C26.0211 6.51207 24.3351 5.93211 24.2008 7.75667C24.068 9.57973 24.2903 8.95792 24.2903 8.95792C24.2903 8.95792 25.1781 7.00133 26.1539 6.68944L26.0211 6.51207Z" fill="#00A651" stroke="black" stroke-opacity="0.17" stroke-width="2.35452" stroke-miterlimit="4.8"/>
<path d="M26.448 7.42552C26.448 7.46438 26.2714 8.84301 26.2714 8.84301L26.0342 8.81261L26.2127 7.43349C26.2068 7.43515 25.6363 4.4022 25.6363 4.4022L25.8716 4.35885L26.448 7.42552Z" fill="black" fill-opacity="0.17"/>
<path d="M27.9815 6.9771L28.0601 7.2023C27.2539 7.4863 26.1284 6.59843 26.0816 6.56106L26.2308 6.37522C26.2408 6.38219 27.2992 7.21974 27.9815 6.9771Z" fill="black" fill-opacity="0.17"/>
<path d="M29.6412 3.28567L25.8685 5.19759L25.718 4.89973L29.4907 2.9878L29.6412 3.28567Z" fill="black" fill-opacity="0.17"/>
<path d="M28.8384 4.53273L28.6036 4.7682L27.8488 4.01292L28.0836 3.77745L28.8384 4.53273Z" fill="black" fill-opacity="0.17"/>
<path d="M28.082 2.66537L27.283 4.40098L26.9809 4.26138L27.7799 2.52578L28.082 2.66537Z" fill="black" fill-opacity="0.17"/>
<path d="M26.1661 6.52454L26.1447 6.85836C25.1187 6.7886 24.868 7.45425 24.8665 7.46172L24.5393 7.39346C24.5781 7.20313 24.9889 6.44532 26.1661 6.52454Z" fill="black" fill-opacity="0.17"/>
<path d="M8.85809 7.29264C7.60027 6.58663 7.34811 4.11337 7.34811 4.11337C7.64902 5.02316 9.96372 5.92996 9.96372 5.92996C8.25331 4.86871 6.19126 0.0822649 6.19126 0.0822649C6.74432 1.79671 11.222 3.20724 14.0914 4.82013C16.9607 6.43243 15.4502 11.0722 15.4502 11.0722C16.2544 10.5172 17.8151 8.0484 18.116 5.87848C18.4199 3.71163 19.2749 2.85564 21.2374 2.60303C23.201 2.35042 24.3579 4.56759 24.3579 4.56759L27.2759 6.08176L24.3086 6.1814C24.3086 6.1814 22.1924 6.8889 22.1924 8.55203C22.1924 10.2167 24.0545 16.8706 20.9863 20.602C18.8506 23.1948 10.9703 24.6846 10.9703 24.6846" fill="white"/>
<path d="M8.85809 7.29264C7.60027 6.58663 7.34811 4.11337 7.34811 4.11337C7.64902 5.02316 9.96372 5.92996 9.96372 5.92996C8.25331 4.86871 6.19126 0.0822649 6.19126 0.0822649C6.74432 1.79671 11.222 3.20724 14.0914 4.82013C16.9607 6.43243 15.4502 11.0722 15.4502 11.0722C16.2544 10.5172 17.8151 8.0484 18.116 5.87848C18.4199 3.71163 19.2749 2.85564 21.2374 2.60303C23.201 2.35042 24.3579 4.56759 24.3579 4.56759L27.2759 6.08176L24.3086 6.1814C24.3086 6.1814 22.1924 6.8889 22.1924 8.55203C22.1924 10.2167 24.0545 16.8706 20.9863 20.602C18.8506 23.1948 10.9703 24.6846 10.9703 24.6846" stroke="black" stroke-opacity="0.17" stroke-width="3.01862" stroke-miterlimit="4.8"/>
<path d="M14.644 12.4328C14.644 12.4328 14.0402 9.45783 12.0777 9.55897C10.1151 9.65961 9.56151 7.3418 8.40416 6.98805C7.2468 6.63579 1.25794 5.02348 0.6035 2.14847C0.6035 2.14847 1.15706 6.8884 6.64144 9.25754C6.64144 9.25754 2.21452 7.7947 1.71012 6.83658C1.71012 6.83658 3.6742 11.0716 8.45432 11.7268C8.45432 11.7268 3.9756 11.3746 3.32116 10.1653C3.32116 10.1653 5.33445 12.8364 8.6549 13.1902C8.6549 13.1902 5.58571 14.4502 4.77998 13.3909C4.77998 13.3909 6.44118 15.357 8.50522 15.507L7.95015 15.6589C7.95015 15.6589 9.91272 17.9787 12.0772 16.4153C14.2402 14.8518 14.292 16.8198 14.292 16.8198" fill="white"/>
<path d="M14.644 12.4328C14.644 12.4328 14.0402 9.45783 12.0777 9.55897C10.1151 9.65961 9.56151 7.3418 8.40416 6.98805C7.2468 6.63579 1.25794 5.02348 0.6035 2.14847C0.6035 2.14847 1.15706 6.8884 6.64144 9.25754C6.64144 9.25754 2.21452 7.7947 1.71012 6.83658C1.71012 6.83658 3.6742 11.0716 8.45432 11.7268C8.45432 11.7268 3.9756 11.3746 3.32116 10.1653C3.32116 10.1653 5.33445 12.8364 8.6549 13.1902C8.6549 13.1902 5.58571 14.4502 4.77998 13.3909C4.77998 13.3909 6.44118 15.357 8.50522 15.507L7.95015 15.6589C7.95015 15.6589 9.91272 17.9787 12.0772 16.4153C14.2402 14.8518 14.292 16.8198 14.292 16.8198" stroke="black" stroke-opacity="0.17" stroke-width="3.01862" stroke-miterlimit="4.8"/>
<path d="M10.1761 16.917C10.1761 16.917 7.64852 21.1529 7.39636 23.4211C7.39636 23.4211 2.5645 28.7656 0.753288 29.0658C0.753288 29.0658 1.60925 29.418 3.16996 28.1086C3.16996 28.1086 1.8614 29.4698 1.60924 29.5207C1.35857 29.5725 2.66662 29.4195 2.86855 29.0658C2.86855 29.0658 2.31399 29.8744 1.96236 29.975C1.60923 30.0762 2.31401 29.8744 2.31401 29.8744C2.31401 29.8744 2.96952 29.7733 3.27092 29.5207C3.57332 29.2695 3.37188 30.1748 3.37188 30.1748C3.37188 30.1748 4.12687 29.9731 4.37754 29.7215C4.6297 29.4703 4.27658 30.2775 4.27658 30.2775L4.93061 30.1255L5.3832 30.427C5.3832 30.427 5.43395 30.7299 5.73783 30.4778C6.03774 30.2282 6.59229 30.4778 6.59229 30.4778C6.59229 30.4778 6.99614 30.8315 7.19608 30.5789C7.39602 30.3273 8.15896 31.5485 8.15896 31.5485L11.3276 23.886" fill="white"/>
<path d="M10.1761 16.917C10.1761 16.917 7.64852 21.1529 7.39636 23.4211C7.39636 23.4211 2.5645 28.7656 0.753288 29.0658C0.753288 29.0658 1.60925 29.418 3.16996 28.1086C3.16996 28.1086 1.8614 29.4698 1.60924 29.5207C1.35857 29.5725 2.66662 29.4195 2.86855 29.0658C2.86855 29.0658 2.31399 29.8744 1.96236 29.975C1.60923 30.0762 2.31401 29.8744 2.31401 29.8744C2.31401 29.8744 2.96952 29.7733 3.27092 29.5207C3.57332 29.2695 3.37188 30.1748 3.37188 30.1748C3.37188 30.1748 4.12687 29.9731 4.37754 29.7215C4.6297 29.4703 4.27658 30.2775 4.27658 30.2775L4.93061 30.1255L5.3832 30.427C5.3832 30.427 5.43395 30.7299 5.73783 30.4778C6.03774 30.2282 6.59229 30.4778 6.59229 30.4778C6.59229 30.4778 6.99614 30.8315 7.19608 30.5789C7.39602 30.3273 8.15896 31.5485 8.15896 31.5485L11.3276 23.886" stroke="black" stroke-opacity="0.17" stroke-width="3.01862" stroke-miterlimit="4.8"/>
<path d="M11.1738 23.1805L7.16901 30.817L6.74853 30.5957L10.7533 22.9592L11.1738 23.1805Z" fill="black" fill-opacity="0.17"/>
<path d="M10.5217 22.6171L3.67004 30.3022L3.31434 29.984L10.166 22.2988L10.5217 22.6171Z" fill="black" fill-opacity="0.17"/>
<path d="M9.92568 22.3253L2.10712 29.6245L1.78259 29.2757L9.60115 21.9764L9.92568 22.3253Z" fill="black" fill-opacity="0.17"/>
<path d="M21.7024 5.0381C21.7024 5.0381 22.2127 4.12283 22.6568 4.46661C23.1 4.8094 23.3551 4.87219 23.4317 4.84827C23.4317 4.84827 22.9861 4.87269 22.7329 4.63154C22.4787 4.3884 22.0465 4.54185 21.7024 5.0381Z" fill="black" fill-opacity="0.17"/>
<path d="M24.4627 4.61876C24.4627 4.61876 24.1827 5.19922 24.1787 5.20918C24.2071 5.21085 24.4951 6.14636 24.4951 6.14636L24.2658 6.21712L23.9549 5.19821C23.9604 5.11002 24.2464 4.51663 24.2464 4.51663L24.4627 4.61876Z" fill="black" fill-opacity="0.17"/>
<path d="M21.8184 4.89695C21.8184 4.89695 22.1989 5.34337 22.7202 5.21482C23.2394 5.08777 23.2394 5.08777 23.2394 5.08777C23.2394 5.08777 22.7972 5.11268 22.5033 5.12663C22.2128 5.13859 21.8324 4.98663 21.8184 4.89695Z" fill="black" fill-opacity="0.17"/>
<path d="M21.9428 4.98829C21.9428 4.98829 22.4118 4.49204 22.7301 4.63205C22.7301 4.63205 22.1706 4.45319 21.8533 4.93499L21.9428 4.98829Z" fill="black" fill-opacity="0.17"/>
<path d="M22.0216 4.89695C22.0216 4.89695 22.5547 5.26515 23.1401 4.85958L23.1759 4.83217L23.0998 4.80776C23.0994 4.80817 22.3632 5.11269 22.0216 4.89695Z" fill="black" fill-opacity="0.17"/>
<path d="M22.4763 4.96604C22.3887 4.96604 22.3176 4.89487 22.3176 4.80709C22.3176 4.71931 22.3887 4.64815 22.4763 4.64815C22.5639 4.64815 22.6349 4.71931 22.6349 4.80709C22.6349 4.89487 22.5639 4.96604 22.4763 4.96604Z" fill="black" fill-opacity="0.17"/>
<path d="M22.0464 18.8892C22.0464 18.8892 22.4592 19.6505 22.2433 20.1094C22.0245 20.5673 21.0452 20.8049 20.9149 21.4158C20.7836 22.0281 20.4568 22.0266 19.9997 21.9414C19.5417 21.8532 19.4551 21.8318 19.4551 21.8318C19.4551 21.8318 21.372 20.8049 21.8733 19.1493L22.0464 18.8892Z" fill="black" fill-opacity="0.17"/>
</g>
<defs>
<clipPath id="clip0_128_3">
<rect width="31" height="32" fill="white" transform="matrix(-1 0 0 1 31 1.52588e-05)"/>
</clipPath>
</defs>
</svg>
