<svg width="163" height="52" viewBox="0 0 163 52" fill="none" xmlns="http://www.w3.org/2000/svg">
<path d="M0.669556 36H153.67V51.0498L65.6696 42.9461L0.669556 36Z" fill="white" fill-opacity="0.31"/>
<path d="M0.669556 36H153.67V51.0498L65.6696 42.9461L0.669556 36Z" fill="white" fill-opacity="0.31"/>
<g clip-path="url(#clip0_128_2)">
<path d="M126.334 22.3686C126.334 22.3686 124.784 22.8012 124.588 23.6038C124.394 24.4083 124.921 24.8935 124.45 25.2312C124.45 25.2312 126.463 24.1772 126.464 23.4201C126.466 22.6652 126.42 22.47 126.42 22.47" fill="#00A651"/>
<path d="M126.334 22.3686C126.334 22.3686 124.784 22.8012 124.588 23.6038C124.394 24.4083 124.921 24.8935 124.45 25.2312C124.45 25.2312 126.463 24.1772 126.464 23.4201C126.466 22.6652 126.42 22.47 126.42 22.47" stroke="black" stroke-opacity="0.17" stroke-width="2.35452" stroke-miterlimit="4.8"/>
<path d="M126.936 22.6654C126.936 22.6654 127.029 24.2738 127.771 24.6378C128.512 25.0031 129.1 24.5937 129.328 25.127C129.328 25.127 128.729 22.9324 127.99 22.7659C127.254 22.6024 127.056 22.6049 127.056 22.6049" fill="#00A651"/>
<path d="M126.936 22.6654C126.936 22.6654 127.029 24.2738 127.771 24.6378C128.512 25.0031 129.1 24.5937 129.328 25.127C129.328 25.127 128.729 22.9324 127.99 22.7659C127.254 22.6024 127.056 22.6049 127.056 22.6049" stroke="black" stroke-opacity="0.17" stroke-width="2.35452" stroke-miterlimit="4.8"/>
<path d="M123.392 20.9753C123.392 20.9753 122.522 22.3309 122.91 23.0594C123.295 23.7915 124.014 23.8057 123.887 24.3706C123.887 24.3706 124.688 22.2434 124.185 21.6749C123.684 21.1079 123.523 20.9928 123.523 20.9928" fill="#00A651"/>
<path d="M123.392 20.9753C123.392 20.9753 122.522 22.3309 122.91 23.0594C123.295 23.7915 124.014 23.8057 123.887 24.3706C123.887 24.3706 124.688 22.2434 124.185 21.6749C123.684 21.1079 123.523 20.9928 123.523 20.9928" stroke="black" stroke-opacity="0.17" stroke-width="2.35452" stroke-miterlimit="4.8"/>
<path d="M124.425 20.8005C124.425 20.8005 124.057 19.2296 123.264 19.0004C122.469 18.7667 121.96 19.2728 121.644 18.7877C121.644 18.7877 122.611 20.8475 123.368 20.8842C124.122 20.9168 124.319 20.8802 124.319 20.8802" fill="#00A651"/>
<path d="M124.425 20.8005C124.425 20.8005 124.057 19.2296 123.264 19.0004C122.469 18.7667 121.96 19.2728 121.644 18.7877C121.644 18.7877 122.611 20.8475 123.368 20.8842C124.122 20.9168 124.319 20.8802 124.319 20.8802" stroke="black" stroke-opacity="0.17" stroke-width="2.35452" stroke-miterlimit="4.8"/>
<path d="M122.934 21.3712C122.934 21.3712 121.925 20.1168 121.11 20.2531C120.295 20.388 120.054 21.0641 119.557 20.7625C119.557 20.7625 121.323 22.2013 122.021 21.9064C122.716 21.6076 122.877 21.4891 122.877 21.4891" fill="#00A651"/>
<path d="M122.934 21.3712C122.934 21.3712 121.925 20.1168 121.11 20.2531C120.295 20.388 120.054 21.0641 119.557 20.7625C119.557 20.7625 121.323 22.2013 122.021 21.9064C122.716 21.6076 122.877 21.4891 122.877 21.4891" stroke="black" stroke-opacity="0.17" stroke-width="2.35452" stroke-miterlimit="4.8"/>
<path d="M126.671 21.7325C126.671 21.7325 127.588 20.2034 128.866 21.5134C130.141 22.8231 129.57 22.4903 129.57 22.4903C129.57 22.4903 127.632 21.5643 126.684 21.9537L126.671 21.7325Z" fill="#00A651" stroke="black" stroke-opacity="0.17" stroke-width="2.35452" stroke-miterlimit="4.8"/>
<path d="M126.933 22.7064C126.958 22.7361 127.98 23.6776 127.98 23.6776L128.142 23.5016L127.118 22.5611C127.124 22.5585 125.608 19.8701 125.608 19.8701L125.4 19.9884L126.933 22.7064Z" fill="black" fill-opacity="0.17"/>
<path d="M125.47 23.3503L125.555 23.5732C126.355 23.2716 126.645 21.8677 126.657 21.809L126.423 21.7628C126.42 21.7745 126.149 23.0968 125.47 23.3503Z" fill="black" fill-opacity="0.17"/>
<path d="M121.824 21.5934L125.942 20.6283L125.866 20.3035L121.748 21.2687L121.824 21.5934Z" fill="black" fill-opacity="0.17"/>
<path d="M123.241 22.0311L123.573 22.0602L123.664 20.9963L123.333 20.9672L123.241 22.0311Z" fill="black" fill-opacity="0.17"/>
<path d="M122.618 20.1152L124.347 20.9291L124.488 20.6278L122.76 19.8138L122.618 20.1152Z" fill="black" fill-opacity="0.17"/>
<path d="M126.568 21.8354L126.8 22.0771C127.54 21.3633 128.16 21.7114 128.166 21.7162L128.373 21.4533C128.221 21.3326 127.418 21.0171 126.568 21.8354Z" fill="black" fill-opacity="0.17"/>
<path d="M140.309 11.2827C140.817 9.93281 139.418 7.87769 139.418 7.87769C139.773 8.76764 138.586 10.9515 138.586 10.9515C139.212 9.0384 137.709 4.04802 137.709 4.04802C138.389 5.71609 135.87 9.67771 134.712 12.759C133.554 15.8397 137.697 18.4183 137.697 18.4183C136.724 18.5112 133.94 17.6264 132.314 16.1594C130.686 14.6967 129.481 14.5919 127.816 15.6618C126.151 16.7324 126.693 19.1738 126.693 19.1738L125.434 22.2108L127.769 20.3772C127.769 20.3772 129.844 19.5565 130.915 20.8293C131.986 22.1033 134.844 28.3942 139.594 29.275C142.897 29.8847 149.887 25.9525 149.887 25.9525" fill="white"/>
<path d="M140.309 11.2827C140.817 9.93281 139.418 7.87769 139.418 7.87769C139.773 8.76764 138.586 10.9515 138.586 10.9515C139.212 9.0384 137.709 4.04802 137.709 4.04802C138.389 5.71609 135.87 9.67771 134.712 12.759C133.554 15.8397 137.697 18.4183 137.697 18.4183C136.724 18.5112 133.94 17.6264 132.314 16.1594C130.686 14.6967 129.481 14.5919 127.816 15.6618C126.151 16.7324 126.693 19.1738 126.693 19.1738L125.434 22.2108L127.769 20.3772C127.769 20.3772 129.844 19.5565 130.915 20.8293C131.986 22.1033 134.844 28.3942 139.594 29.275C142.897 29.8847 149.887 25.9525 149.887 25.9525" stroke="black" stroke-opacity="0.17" stroke-width="3.01862" stroke-miterlimit="4.8"/>
<path d="M139.189 18.9408C139.189 18.9408 137.737 16.2753 139.304 15.0895C140.87 13.9033 139.802 11.7731 140.46 10.7575C141.119 9.74294 144.665 4.65422 143.315 2.0327C143.315 2.0327 145.942 6.01653 143.27 11.3597C143.27 11.3597 145.716 7.39078 145.486 6.33285C145.486 6.33285 146.709 10.8382 143.472 14.4164C143.472 14.4164 146.673 11.264 146.395 9.91735C146.395 9.91735 146.574 13.2574 144.26 15.6654C144.26 15.6654 147.42 14.6542 147.355 13.3249C147.355 13.3249 147.349 15.8988 145.866 17.3421L146.389 17.1012C146.389 17.1012 146.38 20.1398 143.717 20.3364C141.055 20.5321 142.283 22.0716 142.283 22.0716" fill="white"/>
<path d="M139.189 18.9408C139.189 18.9408 137.737 16.2753 139.304 15.0895C140.87 13.9033 139.802 11.7731 140.46 10.7575C141.119 9.74294 144.665 4.65422 143.315 2.0327C143.315 2.0327 145.942 6.01653 143.27 11.3597C143.27 11.3597 145.716 7.39078 145.486 6.33285C145.486 6.33285 146.709 10.8382 143.472 14.4164C143.472 14.4164 146.673 11.264 146.395 9.91735C146.395 9.91735 146.574 13.2574 144.26 15.6654C144.26 15.6654 147.42 14.6542 147.355 13.3249C147.355 13.3249 147.349 15.8988 145.866 17.3421L146.389 17.1012C146.389 17.1012 146.38 20.1398 143.717 20.3364C141.055 20.5321 142.283 22.0716 142.283 22.0716" stroke="black" stroke-opacity="0.17" stroke-width="3.01862" stroke-miterlimit="4.8"/>
<path d="M145.495 19.4967C145.495 19.4967 150.156 21.1116 151.809 22.6852C151.809 22.6852 158.947 23.6653 160.526 22.7292C160.526 22.7292 160.098 23.5497 158.061 23.5522C158.061 23.5522 159.938 23.7517 160.164 23.6283C160.389 23.5066 159.29 24.2315 158.907 24.0907C158.907 24.0907 159.852 24.3526 160.186 24.2033C160.521 24.0534 159.852 24.3526 159.852 24.3526C159.852 24.3526 159.285 24.6972 158.892 24.6978C158.499 24.7003 159.236 25.2635 159.236 25.2635C159.236 25.2635 158.528 25.595 158.174 25.5638C157.82 25.5339 158.61 25.9243 158.61 25.9243L158.011 26.229L157.859 26.751C157.859 26.751 158.015 27.0155 157.62 27.0182C157.23 27.0202 156.966 27.5682 156.966 27.5682C156.966 27.5682 156.885 28.0988 156.569 28.0342C156.254 27.9703 156.457 29.396 156.457 29.396L149.099 25.5713" fill="white"/>
<path d="M145.495 19.4967C145.495 19.4967 150.156 21.1116 151.809 22.6852C151.809 22.6852 158.947 23.6653 160.526 22.7292C160.526 22.7292 160.098 23.5497 158.061 23.5522C158.061 23.5522 159.938 23.7517 160.164 23.6283C160.389 23.5066 159.29 24.2315 158.907 24.0907C158.907 24.0907 159.852 24.3526 160.186 24.2033C160.521 24.0534 159.852 24.3526 159.852 24.3526C159.852 24.3526 159.285 24.6972 158.892 24.6978C158.499 24.7003 159.236 25.2635 159.236 25.2635C159.236 25.2635 158.528 25.595 158.174 25.5638C157.82 25.5339 158.61 25.9243 158.61 25.9243L158.011 26.229L157.859 26.751C157.859 26.751 158.015 27.0155 157.62 27.0182C157.23 27.0202 156.966 27.5682 156.966 27.5682C156.966 27.5682 156.885 28.0988 156.569 28.0342C156.254 27.9703 156.457 29.396 156.457 29.396L149.099 25.5713" stroke="black" stroke-opacity="0.17" stroke-width="3.01862" stroke-miterlimit="4.8"/>
<path d="M148.763 24.9324L156.743 28.199L156.923 27.759L148.942 24.4924L148.763 24.9324Z" fill="black" fill-opacity="0.17"/>
<path d="M148.899 24.0816L159.09 25.5529L159.157 25.0804L148.967 23.609L148.899 24.0816Z" fill="black" fill-opacity="0.17"/>
<path d="M149.168 23.4746L159.85 24.0283L159.873 23.5524L149.192 22.9987L149.168 23.4746Z" fill="black" fill-opacity="0.17"/>
<path d="M129.028 17.8247C129.028 17.8247 128.048 17.4527 127.93 18.0016C127.811 18.5492 127.656 18.7615 127.582 18.7925C127.582 18.7925 127.939 18.5243 127.978 18.1768C128.016 17.8272 128.445 17.6664 129.028 17.8247Z" fill="black" fill-opacity="0.17"/>
<path d="M126.645 19.2805C126.645 19.2805 127.233 19.5445 127.243 19.5495C127.222 19.5691 127.604 20.4704 127.604 20.4704L127.825 20.377L127.407 19.3971C127.346 19.3331 126.745 19.0631 126.745 19.0631L126.645 19.2805Z" fill="black" fill-opacity="0.17"/>
<path d="M128.848 17.7914C128.848 17.7914 128.844 18.3779 128.363 18.615C127.884 18.852 127.884 18.852 127.884 18.852C127.884 18.852 128.238 18.5865 128.472 18.408C128.702 18.2301 128.895 17.869 128.848 17.7914Z" fill="black" fill-opacity="0.17"/>
<path d="M128.812 17.9413C128.812 17.9413 128.133 17.8634 127.98 18.1754C127.98 18.1754 128.293 17.6784 128.846 17.8429L128.812 17.9413Z" fill="black" fill-opacity="0.17"/>
<path d="M128.693 17.9221C128.693 17.9221 128.522 18.5471 127.813 18.6135L127.768 18.6155L127.81 18.5479C127.811 18.5479 128.57 18.3071 128.693 17.9221Z" fill="black" fill-opacity="0.17"/>
<path d="M128.389 18.2677C128.456 18.2113 128.465 18.1111 128.408 18.0439C128.352 17.9767 128.252 17.968 128.185 18.0244C128.118 18.0808 128.109 18.181 128.165 18.2482C128.222 18.3153 128.322 18.3241 128.389 18.2677Z" fill="black" fill-opacity="0.17"/>
<path d="M137.68 28.6465C137.68 28.6465 137.854 29.4949 138.315 29.7071C138.777 29.9167 139.679 29.4682 140.172 29.8518C140.667 30.2359 140.916 30.0245 141.211 29.6651C141.505 29.3028 141.557 29.2306 141.557 29.2306C141.557 29.2306 139.429 29.6785 137.98 28.7341L137.68 28.6465Z" fill="black" fill-opacity="0.17"/>
</g>
<defs>
<clipPath id="clip0_128_2">
<rect width="31" height="32" fill="white" transform="translate(118.67 19.9535) rotate(-40.0654)"/>
</clipPath>
</defs>
</svg>
