<svg width="75" height="86" viewBox="0 0 75 86" fill="none" xmlns="http://www.w3.org/2000/svg">
<g id="heart">
<path id="path9302" d="M36.2745 31.5141C36.4732 30.4455 34.8556 30.2861 34.7814 31.3946C34.6753 33.0079 34.2454 34.587 33.8265 36.1376C33.478 37.4226 32.8477 38.7341 32.9961 40.0722C33.0405 40.4537 33.561 40.727 33.836 40.3683C34.6887 39.2522 34.8793 37.787 35.2411 36.447C35.6859 34.8185 35.9676 33.1711 36.2745 31.5141Z" fill="#455C6B"/>
<path id="path9304" d="M34.154 29.6105C34.343 28.6311 32.7662 28.3388 32.6772 29.2859C32.5438 30.6676 32.3287 32.0323 32.1197 33.4046C31.9284 34.6629 31.4961 35.9896 31.832 37.2366C31.9542 37.6883 32.546 37.6522 32.7527 37.3106C33.3927 36.2724 33.3555 34.904 33.5188 33.7101C33.7078 32.3398 33.8879 30.9694 34.154 29.6105Z" fill="#455C6B"/>
<path id="path9306" d="M32.4621 26.4731C32.4361 25.545 31.0016 25.6209 31.0261 26.5471C31.0483 27.3993 31.0016 28.1965 30.8371 29.0354C30.6881 29.7794 30.3009 30.4854 30.6101 31.2181C30.7036 31.4363 30.9756 31.5748 31.1929 31.4154C31.8713 30.92 31.9172 30.102 32.1063 29.3125C32.3264 28.3863 32.4859 27.424 32.4621 26.4731Z" fill="#455C6B"/>
<path id="path9308" d="M28.8998 20.9652C28.6536 21.8478 28.4253 22.7303 28.2755 23.6375C28.1263 24.5239 27.8714 25.6096 28.3251 26.4105C28.4898 26.699 28.9554 26.6591 29.0909 26.3688C29.4483 25.6153 29.2444 24.708 29.3579 23.8767C29.4781 22.9694 29.7301 22.0793 29.9687 21.1948C30.1564 20.5135 29.0873 20.2838 28.8998 20.9652Z" fill="#455C6B"/>
<path id="path9310" d="M26.0379 18.232C26.0726 19.0102 26.1216 19.7391 26.5471 20.4147C26.6977 20.6539 27.0742 20.6311 27.2004 20.3806C27.5517 19.665 27.5229 18.9343 27.4724 18.158C27.4132 17.2337 25.9986 17.3077 26.0379 18.232Z" fill="#455C6B"/>
<path id="path9312" d="M22.8498 11.2455C22.1728 11.1943 22.1046 12.3027 22.7556 12.4203C22.637 12.4014 22.9447 12.9556 23.0373 13.0846C23.2478 13.3807 23.6912 13.3636 23.8677 13.0391C24.3422 12.1622 23.7927 11.3214 22.8498 11.2455Z" fill="#455C6B"/>
<path id="path9314" d="M40.7992 67.2248C40.6768 68.3333 40.4285 69.4341 40.1949 70.5273C39.9836 71.5181 39.4818 72.6664 39.928 73.6248C40.0614 73.9133 40.378 73.9912 40.6175 73.7691C41.3056 73.1314 41.2908 72.1843 41.4456 71.2941C41.665 70.0338 41.8571 68.7603 42.2027 67.5304C42.4576 66.6251 40.8992 66.3119 40.7992 67.2248Z" fill="#455C6B"/>
<path id="path9316" d="M44.1503 65.7197C44.2082 64.7954 42.56 64.877 42.7158 65.7994C42.8345 66.4979 42.8271 67.2305 42.7715 67.9423C42.7121 68.6578 42.4549 69.2709 42.6786 69.9712C42.8011 70.3432 43.2518 70.3888 43.5105 70.142C44.5975 69.1114 44.0674 67.0521 44.1503 65.7197Z" fill="#455C6B"/>
<path id="path9318" d="M45.0458 62.1421C45.0769 63.1575 44.9397 64.152 44.7545 65.1485C44.6098 65.921 44.2443 66.7314 44.6136 67.4602C44.7359 67.7013 45.0881 67.7317 45.2943 67.6007C46.0282 67.1281 46.0912 65.9248 46.2359 65.1257C46.4188 64.1198 46.5175 63.0872 46.4805 62.0661C46.4448 61.1361 45.0162 61.2159 45.0458 62.1421Z" fill="#455C6B"/>
<path id="path9320" d="M48.228 55.4099C48.2821 56.5012 48.3281 57.5887 48.2265 58.6782C48.1367 59.6253 47.8388 60.5211 47.8632 61.4872C47.8735 61.8384 48.3094 61.9503 48.5393 61.7245C50.1074 60.1681 49.7552 57.342 49.6441 55.332C49.5898 54.4191 48.1813 54.495 48.228 55.4099Z" fill="#455C6B"/>
<path id="path9322" d="M51.8669 48.1463C51.8893 49.2566 51.6053 50.2378 51.1826 51.2533C50.8416 52.077 50.3041 52.8666 50.3783 53.7795C50.4028 54.123 50.8319 54.402 51.1382 54.1629C52.0153 53.4815 52.3689 52.2573 52.7523 51.2438C53.14 50.2132 53.3304 49.1731 53.3031 48.0703C53.2794 47.1403 51.85 47.222 51.8669 48.1463Z" fill="#455C6B"/>
<path id="path9324" d="M68.1419 12.4925C72.1048 20.2875 67.5355 30.214 62.715 39.0928C66.207 31.3813 70.8014 20.4431 68.1419 12.4925ZM61.6436 32.2904C61.4398 34.4181 60.9319 36.4869 60.413 38.5614C60.0438 40.0342 59.4617 41.5925 59.4431 43.1279C58.7002 44.7735 57.9367 46.4057 57.1545 48.0304C57.8833 45.5611 58.2035 42.8262 58.4461 40.4233C58.5423 39.4705 57.0826 39.1478 56.9877 40.1025C56.895 41.0496 56.717 42.0024 56.5154 42.959C56.5183 42.754 56.5318 42.5395 56.528 42.3441C56.5168 41.4197 55.0585 41.4956 55.0933 42.4219C55.1624 44.206 54.9524 45.9597 54.4223 47.666C53.9234 49.2717 53.0123 50.8262 52.8677 52.5078C52.8335 52.914 53.3682 53.3638 53.681 52.9272C54.3445 52.0048 54.8797 50.8698 55.3083 49.6608C55.2935 49.9398 55.2736 50.2131 55.2764 50.4883C55.281 50.7692 55.5234 50.9059 55.7629 50.8983C54.3172 53.8459 52.847 56.7858 51.4049 59.7486C47.7312 67.3007 44.4135 75.0502 39.7833 82.0728C35.544 73.175 30.9273 64.3949 26.5864 55.499C29.0367 51.071 30.6605 46.3716 30.1638 40.9908C30.0933 40.2164 29.2244 39.4648 28.4548 40.0095C27.8594 40.4309 27.2856 40.8788 26.705 41.3249C26.6703 41.2641 26.6472 41.1939 26.6101 41.1351C26.0935 40.2905 25.4165 39.9165 24.655 39.9469C24.3438 39.8349 23.9805 39.833 23.706 40.0019C22.5348 40.725 21.5152 41.5659 20.5662 42.4541C17.7253 35.8757 15.1763 29.1796 13.2176 22.2614C12.2306 18.7843 11.5234 15.2465 11.0926 11.6593C10.016 2.71595 17.2633 -0.46888 24.1116 5.34656C31.2485 11.4049 33.8804 21.971 37.2649 30.5689C36.8177 30.4664 36.2654 30.7246 36.2914 31.313C36.3766 33.2755 36.0986 35.1602 35.7488 37.0828C35.4411 38.7739 34.8605 40.7706 35.1327 42.4788C35.2016 42.9058 35.8674 43.1868 36.0616 42.68C36.0912 42.6098 36.1046 42.5301 36.1297 42.4541C36.5642 42.7502 37.3442 42.6173 37.3516 41.8582C37.3812 37.9976 39.5039 33.4083 40.9326 29.935C42.3042 26.5965 43.8872 23.2389 46.875 21.1283C47.2627 20.855 47.1181 20.1091 46.6043 20.1338C49.088 16.6567 52.0016 12.5741 52.7223 11.7845C57.7943 6.24239 66.0883 7.77788 67.0026 15.831C67.3399 18.8147 66.8794 21.8116 66.1491 24.7269C66.1625 23.9487 66.0906 23.1687 66.0758 22.6524C66.0735 22.5385 66.0462 22.4417 66.0054 22.3582C66.1166 21.7395 65.975 21.0771 65.9327 20.4489C65.872 19.5037 65.8008 18.5679 65.8067 17.6189C65.8103 16.6908 64.2682 16.7725 64.3684 17.6987C64.4646 18.5262 64.498 19.3537 64.5314 20.1869C64.5625 20.8987 64.4758 21.7243 64.6857 22.4171C64.65 22.5101 64.6314 22.6106 64.6404 22.7302C64.7034 23.5539 64.7835 24.3777 64.687 25.2014C64.5995 25.9018 64.3424 26.344 64.7153 26.9798C64.8368 27.1867 65.1133 27.2133 65.3039 27.0994C65.4077 27.0349 65.4855 26.9457 65.5656 26.8565C65.499 27.0937 65.4322 27.3329 65.3641 27.5682C64.9763 27.4411 64.5069 27.5815 64.4128 28.0958C64.188 29.2726 64.0569 30.4645 63.8776 31.6527C63.8235 32.0095 63.7344 32.3986 63.6528 32.7972C63.2467 33.9094 62.8298 35.0197 62.3962 36.1205C62.6867 34.9685 62.9337 33.8126 63.0487 32.5979C63.136 31.685 61.7326 31.368 61.6436 32.2904ZM50.2692 67.1584C48.7544 70.96 45.5293 81.342 40.9933 83.9556C40.9756 83.8284 40.94 83.6974 40.8377 83.5817C40.7635 83.4963 40.7004 83.407 40.6249 83.3197C44.8198 76.9102 48.5148 69.9085 51.9401 62.7835C51.3952 64.2506 50.8452 65.7083 50.2692 67.1584ZM28.1916 62.4381C30.223 66.477 32.2857 70.495 34.3281 74.5036C32.0171 70.6393 30.0318 66.5738 28.1916 62.4381ZM17.4636 64.5334C17.5044 64.3038 17.5539 64.0741 17.5932 63.8426C17.597 63.816 17.6156 63.7951 17.6169 63.7667C17.7281 62.4608 18.4792 61.2917 18.5904 59.9707C18.6016 59.8473 18.5807 59.7353 18.5422 59.631C18.6164 59.3918 18.6794 59.1432 18.7572 58.904C19.3207 59.3557 20.3379 59.2836 20.6529 58.3802C20.9703 57.3211 21.3618 56.2943 21.7733 55.277C22.2826 55.518 22.9943 55.4231 23.3392 54.941C23.4489 55.1935 23.5629 55.4421 23.6728 55.6964C21.7822 58.699 19.5468 61.5764 17.4636 64.5334ZM19.2429 46.9884C19.3333 46.8461 19.449 46.7227 19.5468 46.5842C19.6603 46.8157 19.7745 47.0454 19.8879 47.2769C19.2095 47.9944 18.5646 48.7403 17.9417 49.5033C18.2924 48.6568 18.7128 47.8197 19.2429 46.9884ZM10.2474 17.0571C11.0726 20.9423 12.3441 24.7573 13.4429 28.1926C14.5661 31.6887 15.8599 35.1298 17.2248 38.5481C13.8357 31.6356 10.8798 24.8009 10.2474 17.0571ZM41.8742 24.5447C41.863 24.7117 41.8408 24.8826 41.8616 25.0306C41.3885 25.9416 40.9831 26.8166 40.6494 27.4904C40.0147 28.7791 39.4846 30.0812 39.005 31.3984C38.968 31.294 38.9308 31.1877 38.896 31.0833C39.5892 28.8721 40.6583 26.6553 41.8742 24.5447ZM13.901 57.6248C13.6393 56.0931 13.3584 54.5614 13.0522 53.0221C12.9558 52.5382 12.6125 52.2914 12.2232 52.2269C12.0402 51.4202 11.8267 50.6193 11.5916 49.824C12.591 51.6195 13.414 53.508 14.0775 55.4421C14.036 55.5218 13.9878 55.5996 13.947 55.6812C13.6364 56.3265 14.0176 56.8865 14.5253 57.0668C14.5253 57.0895 14.5276 57.1142 14.5276 57.1389C14.2717 57.2243 14.0405 57.3837 13.901 57.6248ZM13.414 71.0967C12.3627 68.6255 11.1453 66.253 9.8864 63.8957C10.4847 63.9679 11.1431 63.6186 11.1913 62.8177C11.2446 61.8933 11.3632 60.9975 11.5027 60.1111C11.6954 60.43 11.8719 60.7603 12.0809 61.0639C12.3775 63.2144 12.6199 65.3724 12.689 67.5626C12.7097 68.1947 13.1166 68.542 13.5837 68.6369C13.6046 68.9121 13.6061 69.1816 13.6365 69.4606C13.6638 69.7187 13.7824 69.9351 13.9382 70.1173C13.764 70.4438 13.5763 70.7645 13.414 71.0967ZM7.76085 59.9631C8.07136 59.7961 8.31468 59.4943 8.33157 59.0217C8.34789 58.5073 8.39098 57.9987 8.4259 57.4881C8.61627 58.9647 8.7609 60.4471 8.84479 61.9389C8.48512 61.2803 8.12413 60.6217 7.76085 59.9631ZM4.60753 54.0736C4.55799 53.9768 4.50238 53.844 4.44677 53.6978C4.45702 53.6732 4.47789 53.6542 4.48757 53.6257C4.70167 53.0392 4.87305 52.4452 5.02641 51.8511C5.29934 53.322 5.56772 54.7967 5.77897 56.2829C5.38836 55.5465 4.98713 54.8195 4.60753 54.0736ZM3.9812 47.4648C3.85137 46.3697 3.72154 45.2746 3.61184 44.1756C3.63405 44.132 3.66233 44.0845 3.67941 44.0427C3.89958 44.7849 4.16643 45.4909 4.45701 46.178C4.40899 46.252 4.35927 46.3241 4.32587 46.4133C4.19984 46.7626 4.09242 47.1137 3.9812 47.4648ZM64.4684 6.08675C64.2215 5.88367 63.9508 5.89127 63.727 5.99566C56.2558 0.29789 43.2398 18.2035 38.4318 29.7395C35.1075 20.0844 31.298 9.562 23.4221 2.84502C19.9991 -0.0702896 12.0053 -2.09164 10.2216 3.74657C9.76398 5.24977 9.51782 6.80612 9.43051 8.39474C6.44403 21.8686 12.8089 33.0648 18.5853 44.633C17.2225 46.3868 16.2439 48.3626 15.5656 50.4656C14.8479 48.2791 13.8196 46.1514 12.4739 44.3692C12.4701 44.3616 12.4665 44.354 12.4627 44.3483C10.8257 41.1256 8.44431 38.567 4.982 38.1609C4.40007 37.5839 3.78607 37.0335 3.12842 36.521C2.52429 36.0522 1.83248 36.2401 1.53962 36.9424C1.51969 36.9917 1.50488 37.0392 1.484 37.0866C0.943646 37.0923 0.408992 37.4435 0.413547 38.1438C0.418671 38.9448 0.407465 39.7438 0.407465 40.5429C-2.25408 52.931 8.8632 62.0926 12.327 73.6096C12.1699 74.0272 11.986 74.4371 11.851 74.868C11.5568 75.8056 12.7097 76.4984 13.4229 76.1264C14.1472 76.3731 15.1911 75.8094 14.8737 74.8718C14.787 74.6175 14.6847 74.3726 14.5957 74.1202C17.3286 68.6749 21.4833 63.6793 24.8405 58.4219C28.5994 67.2096 32.4806 76.0751 38.7292 83.2742C38.7626 83.3444 38.7996 83.4146 38.8343 83.4849C38.669 83.7183 38.5193 83.9594 38.3511 84.1928C37.9226 84.7945 38.3881 85.3677 38.9085 85.3677C38.9812 85.5897 39.1407 85.7738 39.4557 85.7606C39.6759 85.7492 39.8887 85.7131 40.0986 85.6733C40.4877 85.865 40.992 85.7112 41.1351 85.362C44.5543 83.8929 46.5931 78.7266 48.024 75.8834C52.0128 67.9498 54.5315 59.3975 57.9315 51.2266C63.4416 37.9711 79.8374 18.752 64.4684 6.08675Z" fill="#455C6B"/>
<path id="path9326" d="M4.80261 23.4041C5.36385 15.7817 4.58168 9.10652 7.68584 1.82963C7.96769 1.16913 7.05798 0.694647 6.69452 1.32098C3.03804 7.62231 2.56506 16.4043 3.84013 23.4572C3.95135 24.0741 4.75725 24.0285 4.80261 23.4041Z" fill="#455C6B"/>
<path id="path9328" d="M73.9139 11.4771C73.7249 10.7255 72.6259 11.1184 72.7833 11.8529C73.9323 17.1843 72.9907 22.0261 72.6779 27.348C72.6483 27.8396 73.4379 27.9972 73.6224 27.5511C75.6361 22.6183 75.1831 16.5314 73.9139 11.4771Z" fill="#455C6B"/>
<path id="path9330" d="M71.2783 33.7823C71.1285 34.9818 70.9706 36.1813 70.743 37.3694C70.465 38.8119 69.8326 40.1215 69.4433 41.526C69.3195 41.9777 69.966 42.3156 70.2551 41.9436C71.927 39.8141 72.3222 36.709 72.7551 34.1068C72.9168 33.1407 71.3992 32.8257 71.2783 33.7823Z" fill="#455C6B"/>
</g>
</svg>
