<svg width="20" height="17" viewBox="0 0 20 17" fill="none" xmlns="http://www.w3.org/2000/svg">
<path d="M17.6255 13.7317C15.9889 16.1735 12.678 16.8328 10.2454 15.2019C8.21246 13.8391 7.45253 11.3087 8.20947 9.08757C8.30325 9.18734 8.41244 9.31513 8.54323 9.34823C8.20763 10.2661 8.18212 11.3228 8.63219 12.4571C8.64115 12.4799 8.65839 12.4905 8.67793 12.4951C9.07536 13.4 9.73392 14.1225 10.5318 14.613C10.4927 14.6295 10.466 14.6838 10.4977 14.7231C11.5836 16.0568 14.3307 15.9903 15.6285 14.9366C15.6405 14.9268 15.6432 14.9153 15.6478 14.9038C16.0767 14.7353 16.5008 14.4486 16.6077 14.025C16.624 13.9611 16.5509 13.899 16.496 13.9503C16.3117 14.122 16.194 14.336 15.9873 14.4932C15.7699 14.659 15.4995 14.7465 15.2327 14.7983C17.7023 13.5766 18.8592 10.6876 17.4026 8.21042C16.3234 6.37497 14.4422 5.81227 12.6676 6.11569C12.6088 6.11845 12.5511 6.1212 12.4962 6.12304C12.4633 6.12396 12.4401 6.13844 12.4233 6.15867C11.9877 6.25337 11.5611 6.40072 11.1572 6.59357C11.0223 6.65058 10.8894 6.70827 10.76 6.75884C10.7189 6.7747 10.7007 6.80573 10.6963 6.83929C10.3191 7.06295 9.97366 7.3328 9.66427 7.6353C9.62542 7.59094 9.58083 7.55232 9.54037 7.50957C9.57876 7.52405 9.61577 7.53095 9.64611 7.51923C9.66932 7.51026 9.69001 7.49095 9.6884 7.46383C9.6822 7.35096 9.51049 7.29971 9.42475 7.25856C9.38338 7.23856 9.34177 7.21397 9.29879 7.19856C9.31626 7.17949 9.33533 7.16294 9.35326 7.14409C9.4613 7.18914 9.54359 7.26845 9.65116 7.30959C9.69944 7.32821 9.72587 7.26982 9.71001 7.23304C9.6691 7.13926 9.57531 7.06801 9.47877 7.01813C9.50152 6.99537 9.52635 6.9756 9.5498 6.95307C9.55164 6.95606 9.55048 6.95951 9.55324 6.9625C9.60657 7.02203 9.65094 7.06824 9.733 7.071C9.76954 7.07237 9.79759 7.02709 9.77644 6.99583C9.73943 6.94135 9.68978 6.9186 9.64036 6.87515C9.63921 6.874 9.63783 6.87469 9.63645 6.87377C9.66404 6.84826 9.69369 6.82619 9.72173 6.80159C9.73162 6.81286 9.74196 6.82389 9.75093 6.83561C9.7661 6.85377 9.80195 6.86136 9.82103 6.86803C9.86011 6.88182 9.89666 6.83975 9.88654 6.80251C9.87758 6.77056 9.85827 6.73654 9.8346 6.7062C9.84057 6.70115 9.84701 6.697 9.85321 6.69195C9.88264 6.68114 9.91643 6.67563 9.94378 6.6531C9.95573 6.64322 9.96056 6.62644 9.9601 6.60989C11.7225 5.22474 14.2286 5.03603 16.1827 6.34647C18.6153 7.97734 19.2626 11.2906 17.6255 13.7317ZM8.88067 14.5404C8.86274 14.4971 8.8386 14.4574 8.8101 14.4107C8.76436 14.336 8.72551 14.2572 8.6862 14.179C8.69241 14.1742 8.69953 14.1701 8.70597 14.1648C8.78619 14.2723 8.87193 14.3762 8.9602 14.4785C8.93492 14.4999 8.90687 14.5192 8.88067 14.5404ZM8.62368 14.7302C8.61977 14.6273 8.54369 14.5351 8.49588 14.4463C8.45542 14.3712 8.34302 14.4374 8.38187 14.5128C8.42922 14.6043 8.46554 14.7162 8.53886 14.7882C8.53932 14.7886 8.54001 14.7884 8.54047 14.7888C8.50231 14.8144 8.46232 14.8373 8.42347 14.8619C8.4175 14.8153 8.39474 14.7744 8.37336 14.7187C8.34118 14.6358 8.30923 14.5532 8.27038 14.4728C8.26694 14.4657 8.26234 14.4615 8.25797 14.4565C8.35796 14.3999 8.45634 14.3402 8.5515 14.2744C8.60713 14.3923 8.66828 14.5424 8.77125 14.6259C8.72344 14.6624 8.67287 14.6953 8.62368 14.7302ZM8.18327 15.0033C8.18418 14.9989 8.18671 14.9953 8.18671 14.9904C8.18763 14.9226 8.1566 14.8829 8.13086 14.8201C8.1058 14.7596 8.09408 14.6907 8.07408 14.6284C8.06466 14.5992 8.0442 14.5833 8.02098 14.5769C8.05546 14.5604 8.09017 14.5454 8.12419 14.5282C8.12511 14.5367 8.12649 14.5454 8.13063 14.5544C8.17936 14.659 8.20832 14.8525 8.30325 14.9371C8.26395 14.9606 8.22303 14.9812 8.18327 15.0033ZM9.16202 8.65796C9.17604 8.68049 9.19075 8.70256 9.20431 8.72531C9.31741 8.9161 9.36752 9.1232 9.45716 9.32203C9.49187 9.3995 9.61347 9.35858 9.61163 9.28043C9.61163 9.27261 9.60933 9.26503 9.6091 9.25744C9.97734 10.0879 10.1056 11.0329 9.92217 11.873C9.80494 12.4095 9.59071 12.8801 9.30614 13.2803C8.99951 12.8534 8.77286 12.3569 8.65931 11.7917C8.65931 11.791 8.65908 11.7905 8.65908 11.7901C8.50507 10.6883 8.68023 9.59304 9.16202 8.65796ZM8.3221 8.77634C8.40784 8.8915 8.50254 9.02114 8.63173 9.0724C8.63862 9.07539 8.64575 9.07033 8.65287 9.06826C8.6292 9.12136 8.61058 9.17676 8.5892 9.23055C8.50921 9.12159 8.38531 9.03194 8.29176 8.93908C8.2844 8.93172 8.27636 8.92782 8.26855 8.92391C8.28693 8.87495 8.3021 8.82507 8.3221 8.77634ZM8.5499 8.63061C8.61058 8.70554 8.66023 8.80231 8.75034 8.84162C8.75401 8.843 8.75723 8.84254 8.76091 8.84323C8.73241 8.89794 8.70597 8.95333 8.68 9.00896C8.6492 8.85219 8.50438 8.73657 8.41014 8.61268C8.406 8.60739 8.40095 8.6044 8.39635 8.60003C8.4106 8.56877 8.42163 8.53636 8.4368 8.50533C8.47473 8.54694 8.5145 8.5867 8.5499 8.63061ZM8.60667 8.15778C8.6115 8.14904 8.61518 8.14008 8.62 8.13158C8.68115 8.17663 8.74183 8.22283 8.80136 8.27018C8.87147 8.32581 8.87837 8.41729 8.95629 8.46419C8.96342 8.46832 8.97169 8.46534 8.97974 8.4658C8.96893 8.48258 8.95951 8.49982 8.94871 8.5166C8.91469 8.46809 8.87147 8.42442 8.82941 8.3796C8.75792 8.30351 8.68161 8.23088 8.60667 8.15778ZM8.68299 8.46097C8.7439 8.52211 8.79447 8.60348 8.85998 8.66141C8.84619 8.68532 8.83377 8.71014 8.82044 8.73427C8.79286 8.66532 8.73769 8.6113 8.68965 8.55246C8.63242 8.48189 8.57173 8.41476 8.51059 8.34764C8.51634 8.33615 8.5207 8.32443 8.52668 8.31317C8.57955 8.36167 8.63219 8.40994 8.68299 8.46097ZM3.92047 14.2222C3.89082 14.2321 3.86531 14.2549 3.85197 14.2845C2.79231 13.4607 1.94044 12.5127 1.99515 11.0722C2.10709 12.2309 2.69071 13.3416 3.70302 14.0799C3.77382 14.1317 3.84807 14.1751 3.92047 14.2222ZM7.91157 8.90782C7.89824 8.98276 7.87939 9.05011 7.85295 9.11975C7.84491 9.15101 7.84146 9.18205 7.8325 9.214C7.8256 9.23767 7.81457 9.25537 7.801 9.26985C7.34634 10.8936 7.64585 12.6403 8.5984 14.0128C7.6755 14.7325 6.41494 14.9863 5.13713 14.6362C2.46361 13.9034 1.06306 10.1688 3.10446 8.07825C3.10492 8.07779 3.10538 8.07733 3.10538 8.07733C4.34503 6.94801 6.04509 6.53335 7.57781 7.1965C7.55666 7.24132 7.56034 7.29718 7.61528 7.32499C7.81273 7.42475 7.98926 7.55163 8.16832 7.68036C8.2559 7.74357 8.33336 7.81667 8.40968 7.89091C8.39405 7.90861 8.38187 7.93022 8.36463 7.94654C8.33612 7.99619 8.30394 8.04446 8.27705 8.09457H8.27613C8.24763 8.15226 8.2205 8.21065 8.19315 8.27064C8.18809 8.28168 8.18074 8.28811 8.1743 8.29639C8.11477 8.43637 8.05293 8.57544 7.99087 8.71428C7.96811 8.77243 7.94398 8.83059 7.92283 8.88897C7.92007 8.88897 7.91732 8.88943 7.9141 8.88966C7.91318 8.89127 7.91272 8.89334 7.91157 8.89518C7.91111 8.89954 7.91272 8.90345 7.91157 8.90782ZM15.0104 15.0063C13.5476 15.5044 12.101 15.7237 10.7743 14.758C11.942 15.3849 13.3692 15.5267 14.7208 15.0199C14.8157 14.9845 14.9044 14.9408 14.9959 14.9006C14.9863 14.9355 14.9911 14.9748 15.0104 15.0063ZM12.376 6.33475C12.2863 6.32073 12.1962 6.32049 12.1066 6.32532C12.2072 6.3021 12.307 6.27544 12.4095 6.25958C12.421 6.2851 12.444 6.30578 12.4831 6.30831C12.7256 6.32371 12.9678 6.3159 13.2101 6.32739C13.4632 6.3398 13.6917 6.42255 13.9372 6.46232C14.0333 6.47795 14.0726 6.33498 13.9979 6.28693C13.9905 6.28234 13.982 6.27958 13.9742 6.27498C14.9973 6.44692 15.974 6.92227 16.6498 7.63163C18.4459 9.51696 18.1331 12.2813 16.173 13.9912C14.3951 15.5421 11.5328 15.3975 9.87643 13.9078C10.5097 13.0741 10.891 12.0346 10.891 10.9037C10.891 9.70866 10.4679 8.61383 9.76817 7.7592C10.0383 7.44544 10.3509 7.16179 10.7145 6.92457C10.743 6.9733 10.7982 7.00525 10.86 6.97008C11.0818 6.8432 11.3158 6.75356 11.553 6.66276C11.8238 6.55932 12.1095 6.5384 12.3824 6.44531C12.4428 6.42485 12.4405 6.34486 12.376 6.33475ZM7.95294 15.121C7.94536 15.0445 7.93571 14.9925 7.88605 14.9302C7.81848 14.8449 7.69504 14.9665 7.76561 15.0507C7.79756 15.0888 7.81595 15.1311 7.85181 15.1688L7.85272 15.1693C7.81641 15.1856 7.77825 15.1973 7.74193 15.2129C7.75434 15.1635 7.74124 15.1125 7.74055 15.0585C7.73986 14.9488 7.56954 14.9486 7.57046 15.0585C7.57114 15.1325 7.57781 15.2155 7.64102 15.2527C7.13716 15.452 6.59446 15.5695 6.02095 15.5695C3.4858 15.5695 1.42325 13.4763 1.42325 10.9037C1.42325 8.33087 3.4858 6.23775 6.02095 6.23775C8.55587 6.23775 10.6184 8.33087 10.6184 10.9037C10.6184 11.771 10.3759 12.5773 9.96654 13.2727C9.92424 13.1906 9.84885 13.1331 9.77966 13.0706C9.71645 13.0134 9.62933 13.1007 9.68633 13.1639C9.75483 13.2396 9.81666 13.3244 9.91252 13.3628C9.89459 13.3913 9.87873 13.4209 9.86034 13.449C9.85322 13.4421 9.84632 13.4354 9.83896 13.4281C9.77483 13.3644 9.71668 13.2954 9.65347 13.2311C9.62841 13.2062 9.59945 13.2039 9.57485 13.2129C9.62542 13.1375 9.67438 13.06 9.72173 12.9805C9.78219 13.0309 9.85183 13.0773 9.92401 13.0975C9.95872 13.1069 9.99895 13.0725 9.98584 13.0359C9.97113 12.9964 9.94608 12.9633 9.91712 12.9329C9.94792 12.9426 9.98929 12.9311 9.99504 12.8948C10.0088 12.8005 9.95642 12.7238 9.88563 12.667C10.6564 10.9952 10.1571 9.36364 9.09582 8.22605C9.06525 8.18445 9.03559 8.14353 9.00801 8.10445C8.99169 8.08101 8.96985 8.07112 8.94733 8.06906C8.67034 7.79713 8.36003 7.55807 8.02765 7.35786C7.92191 7.28684 7.81664 7.21856 7.71871 7.14846C7.68745 7.12662 7.65642 7.12846 7.63022 7.14179C5.96625 6.33405 3.89542 6.48806 2.61463 8.38373C2.60267 8.40143 2.60359 8.41936 2.60934 8.43568C2.15214 9.16825 1.95101 10.0024 1.9825 10.8244C1.95193 10.804 1.90021 10.8108 1.88734 10.8534C1.45359 12.2983 2.82058 14.27 4.19861 14.7015C4.21148 14.7054 4.22136 14.7017 4.23148 14.6992C4.55834 14.9297 4.96704 15.0992 5.32194 14.9702C5.3755 14.9507 5.38492 14.867 5.32194 14.8521C5.11047 14.8015 4.90037 14.8201 4.6889 14.7465C4.46547 14.6686 4.27308 14.5144 4.10781 14.345C5.32815 15.058 6.74272 15.1428 7.91869 14.6252C7.9141 14.6387 7.91249 14.6537 7.91823 14.6714C7.95524 14.7852 7.99041 14.9801 8.10488 15.0373C8.10879 15.0389 8.1127 15.0387 8.1166 15.0399C8.06282 15.0686 8.00765 15.0946 7.95294 15.121ZM4.33836 5.4792C4.3448 5.47001 4.35101 5.45943 4.35491 5.44633C4.451 5.10682 4.61627 4.79444 4.76223 4.47424C4.93187 4.99901 5.17391 5.49735 5.36562 6.01431C5.18403 6.04075 5.00542 6.07592 4.82981 6.12074C4.67718 5.89686 4.50869 5.687 4.33836 5.4792ZM5.31689 3.56422C5.51595 3.77293 5.74719 3.92717 5.96142 4.11474C5.94234 4.13887 5.9228 4.16278 5.90487 4.1876C5.87637 4.18737 5.8481 4.186 5.81936 4.186C5.541 4.186 5.24149 4.19473 4.93899 4.19082C4.81096 3.76581 4.75188 3.34447 4.73556 2.90612C4.92175 3.12909 5.11668 3.35389 5.31689 3.56422ZM5.98532 5.96628C5.84488 5.96789 5.7065 5.97685 5.56904 5.99087C5.39734 5.43575 5.08748 4.93443 4.93577 4.37379C5.23092 4.38322 5.52652 4.38206 5.81936 4.3839C5.87108 4.38413 5.92395 4.38643 5.97636 4.38781C5.97452 4.91396 5.95544 5.44265 5.98532 5.96628ZM7.03993 2.72407C6.87811 2.9806 6.7064 3.23 6.51815 3.46951C6.38391 3.64007 6.23013 3.79684 6.08692 3.96073C6.07497 3.95981 6.06348 3.96096 6.05198 3.96349C5.82879 3.82695 5.63547 3.61134 5.45319 3.42814C5.25367 3.2277 5.0799 3.01669 4.90681 2.79487C5.61755 2.81004 6.35035 2.91371 7.03993 2.72407ZM7.15992 2.88313C7.16314 3.28907 7.12521 3.69455 7.13257 4.09704C7.11303 4.12623 7.11027 4.16553 7.13372 4.20507V4.20875C6.81697 4.20829 6.49861 4.1984 6.17933 4.1922C6.17956 4.16599 6.1791 4.13979 6.17956 4.11359C6.55768 3.77362 6.87696 3.31413 7.15992 2.88313ZM7.31485 4.43195C7.32312 4.44206 7.3314 4.4524 7.33967 4.46229C7.1505 4.97833 7.02614 5.5231 6.76801 6.00834C6.76433 6.015 6.76433 6.02075 6.76226 6.02696C6.56849 5.99662 6.37057 5.97754 6.1699 5.97087C6.20002 5.44748 6.18094 4.91925 6.17887 4.39356C6.55239 4.40896 6.9358 4.43631 7.31485 4.43195ZM7.35921 2.90382C7.51896 3.07737 7.69688 3.23781 7.86743 3.39688C8.00834 3.52836 8.15063 3.65823 8.29038 3.79063C8.39566 3.89039 8.48622 4.01176 8.60989 4.08646C8.59541 4.07819 8.57794 4.07382 8.55587 4.07865C8.25889 4.146 7.96237 4.17864 7.66584 4.19473C7.71067 4.08991 7.57436 4.00095 7.50724 4.07175C7.4969 4.02371 7.46564 3.9782 7.42541 3.95981C7.39783 3.94717 7.37001 3.95682 7.35163 3.9782C7.40863 3.6341 7.37093 3.25873 7.35921 2.90382ZM8.09408 4.91558C8.05638 4.89305 8.01685 4.87282 7.97662 4.84822C7.87134 4.78455 7.7794 4.69882 7.69343 4.61147C7.64309 4.5609 7.59942 4.50343 7.55436 4.44781C7.55758 4.43976 7.5608 4.43172 7.56425 4.4239C7.8741 4.40689 8.1789 4.36207 8.46852 4.26093C8.33589 4.47401 8.2143 4.69422 8.09408 4.91558ZM7.89502 5.28313C7.7371 5.57413 7.48012 5.8495 7.35737 6.15867C7.22313 6.12005 7.08613 6.08879 6.94753 6.06144C7.12061 5.57827 7.28335 5.09211 7.48196 4.61928C7.5277 4.66847 7.57137 4.71928 7.61987 4.76617C7.72193 4.86501 7.8679 5.00591 8.01823 5.05579C7.97731 5.13165 7.93616 5.20773 7.89502 5.28313ZM16.3585 6.08396C14.3132 4.71261 11.6836 4.87719 9.81827 6.29751C9.81598 6.29957 9.81437 6.30256 9.81161 6.30463C9.80724 6.30854 9.80264 6.31199 9.79828 6.3159C9.79483 6.31957 9.7923 6.32394 9.78862 6.32762C9.77368 6.34256 9.75874 6.35773 9.74334 6.3729C9.72081 6.39543 9.69576 6.41451 9.67093 6.43404C9.66496 6.44048 9.65806 6.44554 9.65277 6.45243C9.59715 6.52024 9.52819 6.56851 9.45394 6.6069C9.41326 6.6446 9.37257 6.68344 9.33143 6.72137C9.32936 6.72413 9.32844 6.72712 9.32637 6.72965C9.27695 6.79631 9.22592 6.85423 9.1719 6.90733C9.12984 6.95583 9.08249 6.99514 9.03376 7.03352C8.58759 6.67609 8.08052 6.39313 7.52793 6.21016C7.72814 6.01868 7.86169 5.70285 7.97087 5.46977C8.17269 5.04039 8.43428 4.6317 8.70436 4.24323C8.74597 4.18301 8.70436 4.12508 8.6492 4.10715C8.68689 4.11703 8.73723 4.08738 8.71884 4.04348C8.61518 3.7927 8.32279 3.59525 8.12741 3.41228C7.8587 3.16058 7.6093 2.89876 7.3599 2.62982C7.36036 2.62155 7.3599 2.61305 7.36036 2.605C7.36105 2.59374 7.35553 2.58662 7.35323 2.57719C7.37415 2.48709 7.23187 2.41514 7.17532 2.51122C7.17233 2.51673 7.16865 2.52156 7.16543 2.52685C7.15877 2.52662 7.15371 2.5234 7.14567 2.52616C6.36115 2.81004 5.46882 2.6473 4.65465 2.60201C4.60753 2.58914 4.55167 2.60546 4.53076 2.65258C3.97242 3.00611 3.55936 3.52031 3.09918 3.98578C3.00493 4.08117 3.16239 4.23127 3.24353 4.13036C3.61085 3.67363 4.05586 3.23919 4.52754 2.88176C4.53903 3.31298 4.58638 3.74397 4.72407 4.15381C4.7089 4.15887 4.69557 4.16806 4.68476 4.18185C4.25929 4.16393 3.83772 4.11106 3.47109 3.95958C3.35179 3.91016 3.28858 4.11681 3.41684 4.1568C3.80669 4.27725 4.20987 4.33058 4.61627 4.35632C4.48938 4.6779 4.28917 4.96821 4.19309 5.30243C3.89588 4.94201 3.60211 4.57906 3.38053 4.15175C3.33685 4.06808 3.18974 4.12784 3.22629 4.21656C3.51247 4.91511 4.06138 5.63803 4.61718 6.17637C2.6144 6.78895 1.15063 8.67543 1.15063 10.9037C1.15063 13.6264 3.33524 15.8418 6.02095 15.8418C7.21164 15.8418 8.29797 15.4003 9.14478 14.678C9.41924 14.9668 9.72472 15.2332 10.0695 15.4642C12.644 17.1904 16.1494 16.491 17.8834 13.9048C19.6171 11.3186 18.9335 7.81023 16.3585 6.08396Z" fill="black"/>
<path d="M3.67989 1.92094C3.82126 2.03403 3.9686 2.1423 4.10192 2.26504C4.2049 2.35998 4.33569 2.19355 4.21938 2.11264C4.07801 2.01403 3.9486 1.89519 3.8162 1.78463C3.70564 1.69268 3.59163 1.55661 3.44382 1.53707C3.40061 1.53133 3.36337 1.5858 3.37739 1.62442C3.42521 1.75636 3.57416 1.83566 3.67989 1.92094Z" fill="black"/>
<path d="M5.01345 1.78026C5.04792 1.86071 5.17182 1.80209 5.15136 1.7221C5.09275 1.49362 5.00264 1.27824 4.91507 1.05964C4.83301 0.854837 4.79761 0.625662 4.68199 0.437405C4.64866 0.383158 4.55487 0.402695 4.55832 0.470964C4.56889 0.693471 4.68313 0.89529 4.75623 1.10332C4.83668 1.33134 4.91828 1.55798 5.01345 1.78026Z" fill="black"/>
<path d="M6.69522 1.94392C6.71568 1.83565 6.75407 1.72463 6.78073 1.61682C6.8097 1.50005 6.91566 1.29616 6.86831 1.17962C6.8513 1.13802 6.81246 1.11986 6.77085 1.13986C6.64581 1.19962 6.62282 1.44627 6.59547 1.56579C6.56903 1.68302 6.53915 1.80301 6.54742 1.92392C6.55271 2.00391 6.67867 2.03195 6.69522 1.94392Z" fill="black"/>
<path d="M7.29991 1.88392C7.37898 1.72463 7.57275 1.45477 7.4992 1.2718C7.48173 1.22928 7.433 1.21089 7.39668 1.24468C7.32772 1.30904 7.31209 1.4065 7.27577 1.49155C7.23256 1.59154 7.17578 1.68579 7.12567 1.7821C7.06568 1.89772 7.24221 2.00023 7.29991 1.88392Z" fill="black"/>
<path d="M0.707888 11.1876C0.751332 12.1305 0.946714 13.2166 1.52918 13.9885C1.56734 14.0388 1.66871 14.0114 1.64113 13.9411C1.27082 13.0007 0.900283 12.2302 0.912235 11.1876C0.913845 11.0554 0.701911 11.0561 0.707888 11.1876Z" fill="black"/>
<path d="M17.432 6.29267C17.3405 6.23107 17.2467 6.36508 17.3177 6.44047C17.6703 6.814 18.0096 7.16707 18.3013 7.59484C18.5571 7.96951 18.7323 8.40028 18.9242 8.80966C18.9534 8.87173 19.0417 8.82599 19.0293 8.7653C18.8403 7.85436 18.2133 6.81676 17.432 6.29267Z" fill="black"/>
<path d="M19.3242 9.51857C19.2775 9.36111 19.0309 9.428 19.0778 9.58661C19.121 9.7328 19.1107 9.88612 19.1661 10.0289C19.1971 10.1075 19.2957 10.1077 19.3265 10.0289C19.39 9.86566 19.3732 9.68453 19.3242 9.51857Z" fill="black"/>
<path d="M7.95428 2.21124C8.23655 1.88897 8.51836 1.51729 8.85166 1.24697C8.92269 1.18951 8.80937 1.07664 8.75259 1.14767C8.60157 1.33547 8.41446 1.50189 8.24804 1.67635C8.1138 1.81703 7.97864 1.96092 7.83383 2.09056C7.75154 2.16412 7.88187 2.29376 7.95428 2.21124Z" fill="black"/>
</svg>
