<svg width="444" height="105" viewBox="0 0 444 105" fill="none" xmlns="http://www.w3.org/2000/svg">
<g id="swipe">
<g id="Swipe To See More" filter="url(#filter0_d_144_7)">
<path d="M36.666 52.341C36.3067 52.341 35.931 52.2757 35.539 52.145C35.147 52.0143 34.804 51.7857 34.51 51.459C34.216 51.165 34.069 50.8873 34.069 50.626C34.069 50.4627 34.1343 50.2993 34.265 50.136C34.363 49.9727 34.4773 49.8093 34.608 49.646C34.902 49.2867 35.4573 48.7967 36.274 48.176C37.0907 47.588 38.0217 46.9183 39.067 46.167L37.695 47.441C37.5643 47.5717 37.4337 47.7513 37.303 47.98C37.205 48.2413 37.2213 48.3067 37.352 48.176C37.646 47.8167 38.332 47.2123 39.41 46.363C40.488 45.481 41.6313 44.5827 42.84 43.668L39.067 46.167C40.1777 45.3177 41.321 44.4683 42.497 43.619C43.673 42.7697 44.7347 42.002 45.682 41.316C46.662 40.63 47.3807 40.1563 47.838 39.895C47.8707 39.8623 47.9197 39.846 47.985 39.846C48.1157 39.846 48.181 39.895 48.181 39.993C48.181 40.1237 48.0503 40.238 47.789 40.336C47.397 40.4993 46.7273 40.9077 45.78 41.561C44.8653 42.1817 43.8853 42.884 42.84 43.668C44.114 42.8187 45.3227 42.051 46.466 41.365C47.642 40.6463 48.5403 40.1073 49.161 39.748C48.769 39.4867 48.132 39.1927 47.25 38.866C46.368 38.5393 45.3553 38.1473 44.212 37.69C43.1013 37.2 41.958 36.6283 40.782 35.975C39.6387 35.3217 38.626 34.554 37.744 33.672C37.3193 33.28 37.009 32.8717 36.813 32.447C36.6497 31.9897 36.568 31.5487 36.568 31.124C36.568 30.1113 36.9763 29.066 37.793 27.988C38.6423 26.91 39.753 25.8483 41.125 24.803C42.5297 23.7577 44.0487 22.7777 45.682 21.863C46.466 21.4383 47.2663 21.03 48.083 20.638C48.9323 20.2133 49.7653 19.8213 50.582 19.462C49.6673 19.7887 48.769 20.1317 47.887 20.491C47.005 20.8503 46.1557 21.226 45.339 21.618C45.3063 21.6507 45.2737 21.667 45.241 21.667C45.2083 21.667 45.192 21.667 45.192 21.667L46.074 21.128C47.8053 20.2787 49.553 19.5437 51.317 18.923C53.1137 18.2697 54.8123 17.698 56.413 17.208C55.4657 17.502 54.502 17.845 53.522 18.237C52.542 18.5963 51.562 19.0047 50.582 19.462C52.5093 18.776 54.4367 18.188 56.364 17.698C58.324 17.1753 60.137 16.7833 61.803 16.522C63.469 16.228 64.841 16.0647 65.919 16.032C66.5397 15.9993 66.85 15.9177 66.85 15.787C66.85 15.689 66.6867 15.64 66.36 15.64C65.2493 15.6727 63.91 15.787 62.342 15.983C60.774 16.179 59.0753 16.5057 57.246 16.963C58.9773 16.473 60.6107 16.081 62.146 15.787C63.714 15.493 65.0697 15.346 66.213 15.346C66.801 15.346 67.34 15.395 67.83 15.493C68.2547 15.5583 68.6303 15.836 68.957 16.326C69.2837 16.7833 69.5777 17.3223 69.839 17.943C70.1003 18.531 70.28 19.0863 70.378 19.609L70.427 19.462C70.5577 19.2333 70.6393 19.0373 70.672 18.874C70.7047 18.678 70.77 18.4983 70.868 18.335C70.9333 18.237 71.0803 18.3677 71.309 18.727C71.5703 19.0863 71.799 19.4947 71.995 19.952C72.2237 20.4093 72.3053 20.8013 72.24 21.128C72.142 21.716 71.8317 22.3693 71.309 23.088C70.7863 23.774 70.1657 24.4437 69.447 25.097C68.761 25.7503 68.0587 26.2893 67.34 26.714C66.654 27.1387 66.0497 27.351 65.527 27.351C65.3963 27.351 65.233 27.3183 65.037 27.253C65.429 26.9263 65.7883 26.5833 66.115 26.224C66.4417 25.8647 66.752 25.5053 67.046 25.146C65.8047 26.2567 64.4 27.3183 62.832 28.331C61.2967 29.311 59.8267 30.1113 58.422 30.732C57.0173 31.3527 55.9067 31.663 55.09 31.663C54.6653 31.663 54.453 31.5813 54.453 31.418C54.453 31.2547 54.6327 31.0587 54.992 30.83C55.3513 30.5687 55.6127 30.389 55.776 30.291C56.56 29.9317 57.5237 29.3437 58.667 28.527C59.843 27.7103 61.0353 26.812 62.244 25.832C63.4527 24.8193 64.5143 23.8557 65.429 22.941C66.3763 21.9937 67.0133 21.226 67.34 20.638C67.3727 20.3113 67.1277 20.0827 66.605 19.952C66.0823 19.8213 65.3963 19.756 64.547 19.756C63.469 19.756 62.1623 19.8703 60.627 20.099C59.1243 20.3277 57.54 20.6543 55.874 21.079C54.208 21.5037 52.6073 22.01 51.072 22.598C49.5367 23.186 48.1973 23.8557 47.054 24.607C46.27 25.0317 45.486 25.5707 44.702 26.224C43.918 26.8447 43.2647 27.5143 42.742 28.233C42.2193 28.9517 41.958 29.654 41.958 30.34C41.958 30.8953 42.203 31.418 42.693 31.908C43.9997 33.084 45.4043 34.064 46.907 34.848C48.4423 35.632 49.847 36.3343 51.121 36.955C52.4277 37.543 53.375 38.1637 53.963 38.817C54.1263 38.9803 54.2407 39.2253 54.306 39.552C54.404 39.8787 54.453 40.2217 54.453 40.581C54.453 41.2017 54.355 41.7897 54.159 42.345C53.963 42.9003 53.6853 43.2107 53.326 43.276C50.582 43.8313 48.23 44.501 46.27 45.285C44.3427 46.069 42.7747 46.8367 41.566 47.588C40.3573 48.3393 39.459 48.96 38.871 49.45C38.3157 49.94 38.0053 50.1687 37.94 50.136C38.2013 50.4953 38.332 50.8383 38.332 51.165C38.332 51.5243 38.1687 51.802 37.842 51.998C37.5153 52.2267 37.1233 52.341 36.666 52.341ZM56.413 17.208L56.609 17.159H56.707L56.854 17.11L56.952 17.061C57.05 17.0283 57.099 17.012 57.099 17.012C57.099 17.012 57.148 16.9957 57.246 16.963C57.246 16.963 57.2297 16.963 57.197 16.963C57.197 16.963 57.1153 16.9957 56.952 17.061C56.9193 17.061 56.8867 17.0773 56.854 17.11C56.7887 17.11 56.7397 17.1263 56.707 17.159C56.6743 17.159 56.6417 17.1753 56.609 17.208C56.5763 17.208 56.5763 17.1917 56.609 17.159C56.5437 17.1917 56.4783 17.208 56.413 17.208ZM60.4746 47.686C60.148 47.686 59.7723 47.539 59.3476 47.245C58.923 46.9837 58.5473 46.6897 58.2206 46.363C57.9266 46.0037 57.7796 45.726 57.7796 45.53C57.7796 45.334 57.845 45.236 57.9756 45.236C58.041 45.236 58.139 45.2687 58.2696 45.334C58.433 45.3667 58.5963 45.4157 58.7596 45.481C58.5636 45.0563 58.433 44.6153 58.3676 44.158C58.3676 44.0927 58.5473 43.7333 58.9066 43.08C59.266 42.4267 59.707 41.6263 60.2296 40.679C60.785 39.7317 61.324 38.7843 61.8466 37.837C62.402 36.8897 62.8593 36.0893 63.2186 35.436C63.6106 34.75 63.8066 34.3907 63.8066 34.358C63.8393 34.26 63.627 34.4887 63.1696 35.044C62.745 35.5667 62.2713 36.1873 61.7486 36.906C61.226 37.6247 60.8013 38.2617 60.4746 38.817C60.8993 37.935 61.3566 37.004 61.8466 36.024C62.3693 35.044 63.0553 33.8843 63.9046 32.545C64.754 31.173 65.9136 29.4907 67.3836 27.498C67.841 27.694 68.3473 27.939 68.9026 28.233C69.458 28.4943 69.9316 28.7883 70.3236 29.115C70.7156 29.4417 70.9116 29.7847 70.9116 30.144C70.9116 30.2747 70.8626 30.4217 70.7646 30.585C69.6213 32.153 68.5596 33.6393 67.5796 35.044C66.6323 36.4487 65.8646 37.6247 65.2766 38.572C64.6886 39.5193 64.3293 40.1073 64.1986 40.336C64.4273 40.2053 64.6886 40.0583 64.9826 39.895C65.2766 39.7317 65.6033 39.5357 65.9626 39.307L65.8646 39.405C65.7666 39.503 65.6686 39.6337 65.5706 39.797C65.4726 39.9603 65.4726 40.0093 65.5706 39.944C66.028 39.5847 66.8446 39.0293 68.0206 38.278C69.1966 37.5267 70.4216 36.7427 71.6956 35.926L71.8426 35.534C70.6013 36.4487 69.556 37.151 68.7066 37.641C68.2166 37.935 67.743 38.2127 67.2856 38.474C66.861 38.7027 66.469 38.9477 66.1096 39.209C66.5016 38.8823 66.9753 38.5393 67.5306 38.18C68.086 37.8207 68.772 37.396 69.5886 36.906C69.85 36.7427 70.193 36.5303 70.6176 36.269C71.0423 36.0077 71.4833 35.7137 71.9406 35.387L71.8426 35.534L73.1656 34.554L71.9406 35.387L72.7736 33.672C72.5123 33.7373 72.447 33.5577 72.5776 33.133C72.7083 32.7083 73.0023 32.251 73.4596 31.761C73.9496 31.2383 74.5213 30.928 75.1746 30.83C75.4033 30.7973 75.73 30.9607 76.1546 31.32C76.612 31.6793 77.004 32.0713 77.3306 32.496C77.6573 32.9207 77.7226 33.2147 77.5266 33.378C76.8406 33.9333 76.2363 34.652 75.7136 35.534C75.2236 36.416 74.799 37.3307 74.4396 38.278C74.0803 39.1927 73.7863 40.0583 73.5576 40.875C73.329 41.659 73.1656 42.2633 73.0676 42.688C74.603 41.512 75.9586 40.4013 77.1346 39.356C78.3433 38.3107 79.454 37.1837 80.4666 35.975C81.512 34.7663 82.5573 33.329 83.6026 31.663C83.6026 31.4997 83.5863 31.3037 83.5536 31.075C83.521 30.8137 83.5046 30.5197 83.5046 30.193C83.5046 29.8337 83.5373 29.4253 83.6026 28.968C83.668 28.5107 83.815 28.0697 84.0436 27.645C84.305 27.0897 84.5826 26.714 84.8766 26.518C85.2033 26.2893 85.5136 26.175 85.8076 26.175C86.2976 26.175 86.7223 26.3873 87.0816 26.812C87.4736 27.204 87.6696 27.547 87.6696 27.841C87.7023 28.4943 87.539 29.3273 87.1796 30.34C86.853 31.32 86.4936 32.3 86.1016 33.28C85.7096 34.26 85.3993 35.0767 85.1706 35.73C85.0726 35.9913 84.9746 36.122 84.8766 36.122C84.746 36.122 84.6153 35.9423 84.4846 35.583C84.354 35.191 84.2723 34.9133 84.2396 34.75C83.423 35.9587 82.5083 37.151 81.4956 38.327C80.483 39.503 79.4703 40.581 78.4576 41.561C77.4776 42.541 76.5793 43.3577 75.7626 44.011C75.632 44.893 75.2236 45.7097 74.5376 46.461C73.8843 47.1797 73.1493 47.539 72.3326 47.539C71.6793 47.539 71.0913 47.2613 70.5686 46.706C70.0786 46.1507 69.8336 45.5627 69.8336 44.942C69.8336 44.5173 69.899 44.158 70.0296 43.864C70.193 43.5373 70.2746 43.276 70.2746 43.08C70.2746 42.6227 70.3236 42.0183 70.4216 41.267C70.5196 40.5157 70.683 39.6827 70.9116 38.768C70.9116 38.7027 70.9116 38.6537 70.9116 38.621C70.9443 38.5557 70.9606 38.5067 70.9606 38.474C69.948 39.356 68.9843 40.1727 68.0696 40.924C67.155 41.6753 66.4036 42.2797 65.8156 42.737L63.0716 44.942C63.1696 45.0073 63.284 45.1053 63.4146 45.236C63.5453 45.3667 63.6106 45.5137 63.6106 45.677C63.6106 45.873 63.3983 46.1343 62.9736 46.461C62.5816 46.755 62.1406 47.0327 61.6506 47.294C61.1606 47.5553 60.7686 47.686 60.4746 47.686ZM73.5086 42.884C74.26 42.394 75.142 41.7243 76.1546 40.875C77.2 39.993 78.0983 39.1437 78.8496 38.327C80.3523 36.6937 81.7896 34.897 83.1616 32.937C82.835 33.329 82.394 33.8517 81.8386 34.505C81.2833 35.1583 80.7116 35.828 80.1236 36.514C79.5683 37.1673 79.0783 37.7227 78.6536 38.18C77.4123 39.5847 76.2853 40.63 75.2726 41.316C74.2926 42.002 73.721 42.4103 73.5576 42.541C73.427 42.6063 73.3453 42.7043 73.3126 42.835C73.3126 42.9657 73.378 42.982 73.5086 42.884ZM72.0386 35.681L72.1366 35.632L72.2346 35.338L72.0386 35.681ZM94.9695 26.91C94.5448 26.714 94.1038 26.3383 93.6465 25.783C93.1892 25.2277 92.9605 24.754 92.9605 24.362C92.9605 24.0353 93.1075 23.872 93.4015 23.872C93.5648 23.872 93.7608 23.9047 93.9895 23.97C94.2182 24.0027 94.4468 24.019 94.6755 24.019C94.9695 24.019 95.2962 23.921 95.6555 23.725C96.0148 23.4963 96.3742 23.382 96.7335 23.382C97.1908 23.382 97.5502 23.6923 97.8115 24.313C97.9095 24.4763 97.8278 24.705 97.5665 24.999C97.3052 25.293 96.9948 25.5707 96.6355 25.832C96.3088 26.0933 96.0312 26.2893 95.8025 26.42C95.9658 26.42 96.2272 26.3057 96.5865 26.077C96.9458 25.8157 97.2398 25.5707 97.4685 25.342C97.0438 25.8647 96.5538 26.273 95.9985 26.567C95.4432 26.8283 95.1002 26.9427 94.9695 26.91ZM84.3365 46.853C83.7485 46.3303 83.3402 45.9057 83.1115 45.579C82.9155 45.2197 82.8175 44.893 82.8175 44.599C82.8175 44.3703 82.8502 44.1417 82.9155 43.913C83.0135 43.6843 83.0952 43.4393 83.1605 43.178C83.5198 41.9693 84.1078 40.6627 84.9245 39.258C85.7412 37.8533 86.6232 36.4813 87.5705 35.142C88.5505 33.77 89.4162 32.5613 90.1675 31.516C90.1022 31.4507 90.0695 31.2547 90.0695 30.928C90.0695 30.4707 90.1512 29.9643 90.3145 29.409C90.5105 28.821 90.7718 28.5923 91.0985 28.723C91.4905 28.821 91.9478 29.017 92.4705 29.311C93.0258 29.605 93.5158 29.948 93.9405 30.34C94.3652 30.732 94.5775 31.1567 94.5775 31.614C94.5775 31.712 94.5448 31.859 94.4795 32.055H94.4305C93.5812 32.9697 92.7482 33.9823 91.9315 35.093C91.1148 36.2037 90.3962 37.249 89.7755 38.229C89.1875 39.1763 88.7792 39.895 88.5505 40.385C88.7465 40.287 88.9588 40.1563 89.1875 39.993C89.4162 39.8297 89.6612 39.6337 89.9225 39.405C89.7592 39.503 89.6122 39.5683 89.4815 39.601C89.3835 39.6337 89.3672 39.6337 89.4325 39.601C90.2818 38.915 91.2618 38.2127 92.3725 37.494C93.5158 36.7753 94.6755 36.122 95.8515 35.534C97.0275 34.9133 98.1382 34.407 99.1835 34.015H99.2815C99.3468 34.015 99.2978 34.064 99.1345 34.162C99.0038 34.2273 98.8242 34.309 98.5955 34.407C98.3668 34.505 98.0565 34.6683 97.6645 34.897C97.2725 35.093 96.8315 35.338 96.3415 35.632C96.7988 35.436 97.2725 35.2073 97.7625 34.946C98.2525 34.6847 98.7588 34.4723 99.2815 34.309C99.4448 34.2437 99.5918 34.1947 99.7225 34.162C99.8858 34.1293 100 34.113 100.065 34.113C100.294 34.113 100.408 34.1947 100.408 34.358C100.408 34.5867 100.18 34.9133 99.7225 35.338C99.2652 35.7627 98.6772 36.171 97.9585 36.563C97.5338 36.7917 96.8642 37.2163 95.9495 37.837C95.0675 38.4577 94.0548 39.1927 92.9115 40.042C91.7682 40.8587 90.6085 41.708 89.4325 42.59C88.2892 43.472 87.2602 44.2887 86.3455 45.04C85.4308 45.7913 84.7612 46.3957 84.3365 46.853ZM89.9225 39.405C90.0858 39.3397 90.2492 39.258 90.4125 39.16C90.6085 39.0293 90.7392 38.9477 90.8045 38.915C91.4252 38.4903 92.2418 38.0003 93.2545 37.445C94.2998 36.857 95.3288 36.2527 96.3415 35.632C94.7082 36.416 93.4178 37.102 92.4705 37.69C91.5232 38.278 90.6738 38.8497 89.9225 39.405ZM90.5779 62.092C90.3492 62.092 90.0879 62.0103 89.7939 61.847C89.4672 61.6837 89.2059 61.4713 89.0099 61.21C88.3565 60.2953 88.0299 59.1193 88.0299 57.682C88.0299 56.7673 88.3729 55.5097 89.0589 53.909C89.7122 52.341 90.5942 50.577 91.7049 48.617C92.8155 46.6897 94.0405 44.7133 95.3799 42.688C96.7192 40.6627 98.0422 38.7517 99.3489 36.955C100.688 35.1583 101.913 33.623 103.024 32.349C102.371 32.9697 101.685 33.6883 100.966 34.505C100.28 35.3217 99.6429 36.073 99.0549 36.759C98.4995 37.445 98.1075 37.935 97.8789 38.229C97.8462 38.2617 97.8299 38.2453 97.8299 38.18C97.8625 38.082 97.9442 37.9187 98.0749 37.69C98.0749 37.6573 98.2545 37.4287 98.6139 37.004C98.9732 36.5467 99.4142 35.9913 99.9369 35.338C100.492 34.6847 101.048 34.0313 101.603 33.378C102.191 32.7247 102.73 32.1693 103.22 31.712C103.122 31.5487 103.024 31.3853 102.926 31.222C102.861 31.0587 102.828 30.9117 102.828 30.781C102.828 30.487 103.057 30.34 103.514 30.34C103.743 30.34 103.939 30.3563 104.102 30.389C104.559 30.4543 105.066 30.732 105.621 31.222C106.209 31.712 106.536 32.1367 106.601 32.496C106.405 32.79 106.16 33.084 105.866 33.378C105.605 33.672 105.311 33.9987 104.984 34.358C105.67 33.9007 106.454 33.3453 107.336 32.692C108.218 32.0387 109.116 31.3853 110.031 30.732C110.978 30.0787 111.828 29.5397 112.579 29.115C113.363 28.6577 113.967 28.429 114.392 28.429C115.307 28.429 115.944 28.6903 116.303 29.213C116.662 29.7357 116.842 30.3563 116.842 31.075C116.842 31.5977 116.76 32.1367 116.597 32.692C116.434 33.2473 116.221 33.721 115.96 34.113C115.895 34.211 115.666 34.5703 115.274 35.191C114.915 35.779 114.49 36.3997 114 37.053C113.543 37.6737 113.151 38.1147 112.824 38.376C113.379 37.494 113.837 36.71 114.196 36.024C114.555 35.3053 114.653 34.946 114.49 34.946C113.673 36.4487 112.987 37.6247 112.432 38.474C111.909 39.3233 111.468 39.9603 111.109 40.385C110.782 40.8097 110.488 41.2017 110.227 41.561C108.92 43.2597 107.483 44.7297 105.915 45.971C104.347 47.2123 102.763 47.833 101.162 47.833C100.443 47.833 99.7735 47.7023 99.1529 47.441C98.5649 47.1797 98.0585 46.951 97.6339 46.755C97.2419 46.559 96.9479 46.3467 96.7519 46.118C96.0659 47.2287 95.3472 48.4537 94.5959 49.793C93.8445 51.1323 93.1422 52.4553 92.4889 53.762C91.8355 55.0687 91.2965 56.2447 90.8719 57.29C90.4472 58.3353 90.2185 59.1193 90.1859 59.642C90.1859 60.1973 90.3655 60.6873 90.7249 61.112C90.9535 61.3733 91.0679 61.5857 91.0679 61.749C91.0679 61.9777 90.9045 62.092 90.5779 62.092ZM99.7899 46.118C100.149 45.9547 100.688 45.628 101.407 45.138C102.158 44.648 102.812 44.1417 103.367 43.619C103.792 43.227 104.363 42.6717 105.082 41.953C105.801 41.2017 106.568 40.3687 107.385 39.454C108.202 38.5067 108.986 37.5267 109.737 36.514C110.488 35.4687 111.093 34.4397 111.55 33.427C111.419 33.6557 111.207 33.9497 110.913 34.309C110.619 34.6683 110.309 35.044 109.982 35.436C110.309 35.0113 110.586 34.6193 110.815 34.26C111.044 33.868 111.223 33.5577 111.354 33.329C111.648 32.8063 111.877 32.3327 112.04 31.908C112.236 31.4833 112.318 31.1567 112.285 30.928C112.154 30.9933 111.991 31.075 111.795 31.173C111.632 31.271 111.452 31.4017 111.256 31.565C109.982 32.447 108.577 33.4923 107.042 34.701C105.539 35.9097 104.069 37.2 102.632 38.572C101.227 39.9113 100.019 41.2507 99.0059 42.59C98.8099 42.8187 98.5812 43.1453 98.3199 43.57C98.0585 43.9947 97.7482 44.4847 97.3889 45.04C97.7155 45.432 98.0585 45.628 98.4179 45.628C99.9532 45.628 101.685 44.7297 103.612 42.933L103.661 42.884L103.857 42.688C103.857 42.688 103.841 42.7043 103.808 42.737C103.808 42.737 103.759 42.786 103.661 42.884C103.628 42.884 103.612 42.9003 103.612 42.933C102.828 43.6517 102.06 44.256 101.309 44.746C100.558 45.236 99.7899 45.5953 99.0059 45.824C98.9079 45.8567 98.8589 45.9057 98.8589 45.971C98.8589 46.0363 98.9569 46.1017 99.1529 46.167C99.3815 46.2323 99.5939 46.216 99.7899 46.118ZM109.737 35.73L109.786 35.681L109.835 35.632V35.583H109.884L109.933 35.534V35.485H109.982V35.436C109.982 35.436 109.982 35.4523 109.982 35.485C109.982 35.485 109.966 35.485 109.933 35.485C109.933 35.485 109.933 35.5013 109.933 35.534C109.9 35.534 109.884 35.5503 109.884 35.583C109.884 35.583 109.868 35.583 109.835 35.583C109.835 35.6157 109.835 35.632 109.835 35.632C109.802 35.6647 109.786 35.681 109.786 35.681C109.753 35.7137 109.737 35.73 109.737 35.73ZM104.151 42.394C104.412 42.1327 104.657 41.8387 104.886 41.512C105.147 41.1527 105.409 40.826 105.67 40.532C106.029 40.14 106.552 39.5683 107.238 38.817C107.924 38.033 108.594 37.2327 109.247 36.416C108.528 37.3307 107.728 38.327 106.846 39.405C105.964 40.4503 105.066 41.4467 104.151 42.394ZM119.022 47.343C118.303 47.343 117.535 47.0653 116.719 46.51C115.902 45.9547 115.2 45.3013 114.612 44.55C114.056 43.7987 113.779 43.1127 113.779 42.492C113.779 41.316 114.122 40.0583 114.808 38.719C115.526 37.347 116.441 36.0077 117.552 34.701C118.695 33.3943 119.904 32.2347 121.178 31.222C122.452 30.2093 123.677 29.4743 124.853 29.017C125.179 28.8863 125.473 28.8047 125.735 28.772C125.996 28.7393 126.192 28.723 126.323 28.723C126.715 28.723 127.172 29.0007 127.695 29.556C128.217 30.0787 128.691 30.6503 129.116 31.271C129.54 31.8917 129.785 32.3653 129.851 32.692C129.851 33.2147 129.54 33.8517 128.92 34.603C128.332 35.3217 127.548 36.073 126.568 36.857C125.588 37.6083 124.526 38.3107 123.383 38.964C122.272 39.6173 121.194 40.14 120.149 40.532C119.103 40.8913 118.205 41.0547 117.454 41.022C116.931 41.9693 116.67 42.7533 116.67 43.374C116.67 43.7007 116.751 43.9947 116.915 44.256C117.078 44.4847 117.405 44.5827 117.895 44.55C118.679 44.2887 119.659 43.815 120.835 43.129C122.011 42.443 123.268 41.6753 124.608 40.826C125.98 39.944 127.319 39.0947 128.626 38.278C129.965 37.4287 131.157 36.7263 132.203 36.171C132.758 35.877 133.166 35.73 133.428 35.73C133.656 35.73 133.771 35.8117 133.771 35.975C133.771 36.1057 133.624 36.318 133.33 36.612C133.068 36.906 132.66 37.2 132.105 37.494C131.811 37.6573 131.484 37.8533 131.125 38.082C130.765 38.3107 130.39 38.572 129.998 38.866C129.083 39.5193 128.103 40.2707 127.058 41.12C126.045 41.9693 125.016 42.8187 123.971 43.668C122.958 44.5173 122.011 45.2687 121.129 45.922C120.279 46.5753 119.577 47.049 119.022 47.343ZM118.483 39.405C119.463 39.0457 120.508 38.5393 121.619 37.886C122.729 37.2327 123.775 36.5467 124.755 35.828C125.735 35.0767 126.519 34.407 127.107 33.819L127.352 33.574C127.352 33.5087 127.156 33.623 126.764 33.917L122.648 36.955C122.615 36.9877 122.566 37.004 122.501 37.004C122.468 37.004 122.484 36.9713 122.55 36.906C122.615 36.808 122.729 36.71 122.893 36.612C123.546 36.1547 124.216 35.6483 124.902 35.093C125.588 34.505 126.241 33.9497 126.862 33.427C127.646 32.8063 128.038 32.4307 128.038 32.3C127.286 32.3 126.323 32.6593 125.147 33.378C123.971 34.0967 122.778 34.995 121.57 36.073C120.394 37.151 119.365 38.2617 118.483 39.405ZM151.295 17.306C152.471 17.0447 153.68 16.8487 154.921 16.718C156.195 16.5547 157.486 16.4567 158.792 16.424C157.453 16.4567 156.13 16.5547 154.823 16.718C153.549 16.8813 152.373 17.0773 151.295 17.306ZM167.906 17.257C166.763 17.0283 165.603 16.8487 164.427 16.718C163.284 16.5547 162.157 16.4567 161.046 16.424C162.255 16.4567 163.431 16.5383 164.574 16.669C165.75 16.7997 166.861 16.9957 167.906 17.257ZM150.315 47.931C149.499 47.8657 148.715 47.4737 147.963 46.755C147.212 46.0037 146.836 45.0727 146.836 43.962C146.836 42.884 147.179 41.6263 147.865 40.189C148.551 38.7517 149.466 37.2163 150.609 35.583C151.753 33.917 152.994 32.2673 154.333 30.634C155.705 28.968 157.077 27.4 158.449 25.93C159.854 24.4273 161.144 23.1043 162.32 21.961C163.496 20.8177 164.444 19.9357 165.162 19.315C165.032 19.4457 164.738 19.6743 164.28 20.001C163.823 20.3277 163.366 20.687 162.908 21.079C163.039 20.9157 163.349 20.6217 163.839 20.197C164.362 19.7723 164.787 19.4293 165.113 19.168C163.349 19.168 161.422 19.2333 159.331 19.364C157.273 19.462 155.264 19.7397 153.304 20.197C152.978 20.2623 152.422 20.4257 151.638 20.687C150.854 20.9483 149.956 21.3077 148.943 21.765C147.963 22.1897 146.983 22.6797 146.003 23.235C145.023 23.7577 144.174 24.3457 143.455 24.999C142.769 25.6523 142.328 26.322 142.132 27.008C142.263 27.2693 142.328 27.5143 142.328 27.743C142.328 28.2003 142.116 28.429 141.691 28.429C141.299 28.429 140.858 28.2003 140.368 27.743C139.911 27.253 139.682 26.5997 139.682 25.783C139.682 25.3583 139.748 24.95 139.878 24.558C140.238 23.48 140.826 22.549 141.642 21.765L141.544 21.814C141.414 21.8793 141.365 21.8957 141.397 21.863C141.463 21.8303 141.561 21.765 141.691 21.667L141.642 21.765C143.112 20.9483 144.713 20.148 146.444 19.364C148.208 18.58 150.185 17.9267 152.373 17.404C154.562 16.8813 157.012 16.62 159.723 16.62C160.965 16.62 162.271 16.6853 163.643 16.816C165.015 16.9467 166.453 17.159 167.955 17.453C168.119 17.4857 168.331 17.5183 168.592 17.551C168.886 17.5837 169.082 17.6 169.18 17.6H169.229C169.229 17.5673 168.854 17.4693 168.102 17.306C168.004 17.306 167.939 17.2897 167.906 17.257C168.331 16.9957 168.674 16.816 168.935 16.718C169.197 16.62 169.442 16.571 169.67 16.571C169.899 16.571 170.291 16.6037 170.846 16.669C171.434 16.7343 171.99 16.865 172.512 17.061C173.035 17.257 173.313 17.551 173.345 17.943C174.913 18.0737 176.432 18.335 177.902 18.727C179.405 19.119 180.516 19.5273 181.234 19.952C181.822 20.2787 182.116 20.6217 182.116 20.981C182.116 21.373 181.806 21.52 181.185 21.422C180.597 21.324 179.83 21.2097 178.882 21.079C177.968 20.9483 176.988 20.8177 175.942 20.687C174.93 20.5563 173.95 20.4583 173.002 20.393C172.088 20.3277 171.336 20.3277 170.748 20.393C169.442 21.3403 167.906 22.5163 166.142 23.921C164.378 25.3257 162.565 26.8773 160.703 28.576C158.874 30.2747 157.175 32.0713 155.607 33.966C154.072 35.8607 152.831 37.7717 151.883 39.699C150.936 41.6263 150.495 43.5047 150.56 45.334C150.593 45.8567 150.805 46.314 151.197 46.706C151.589 47.0653 151.785 47.343 151.785 47.539C151.785 47.6697 151.671 47.7677 151.442 47.833C151.246 47.8983 150.871 47.931 150.315 47.931ZM148.649 18.041C148.453 18.0737 148.486 18.0573 148.747 17.992C149.041 17.9267 149.368 17.845 149.727 17.747L150.854 17.404C150.789 17.404 150.822 17.404 150.952 17.404C151.116 17.3713 151.23 17.3387 151.295 17.306C151.099 17.3713 150.969 17.404 150.903 17.404H150.854C150.985 17.3713 150.985 17.3713 150.854 17.404C150.756 17.4367 150.609 17.4857 150.413 17.551C150.217 17.5837 149.989 17.649 149.727 17.747L148.649 18.041ZM141.691 21.667C142.606 20.8177 143.684 20.099 144.925 19.511C146.167 18.923 147.408 18.433 148.649 18.041C147.473 18.433 146.346 18.923 145.268 19.511C144.223 20.0663 143.227 20.6707 142.279 21.324L141.691 21.667ZM167.081 47.392C166.623 47.392 166.133 47.294 165.611 47.098C165.121 46.9347 164.68 46.6733 164.288 46.314C163.896 45.9547 163.471 45.4157 163.014 44.697C162.589 43.9457 162.377 43.2107 162.377 42.492C162.377 42.198 162.426 41.9367 162.524 41.708C163.569 38.8987 165.268 36.3343 167.62 34.015C169.972 31.663 172.846 29.6867 176.244 28.086C176.701 28.086 177.175 28.2657 177.665 28.625C178.155 28.9517 178.563 29.36 178.89 29.85L179.772 30.144C179.739 29.7847 179.625 29.5723 179.429 29.507C179.233 29.409 179.135 29.2783 179.135 29.115C179.2 28.821 179.412 28.6577 179.772 28.625C180.131 28.5597 180.392 28.527 180.556 28.527C181.078 28.527 181.503 28.772 181.83 29.262C182.189 29.7193 182.385 30.2257 182.418 30.781C183.202 30.879 184.018 30.9443 184.868 30.977C185.717 31.0097 186.452 31.0423 187.073 31.075C187.726 31.075 188.085 31.075 188.151 31.075H188.298C188.396 31.075 188.445 31.1403 188.445 31.271C188.445 31.4997 188.314 31.6957 188.053 31.859C187.726 32.1203 186.958 32.3 185.75 32.398C184.574 32.4633 183.332 32.496 182.026 32.496C181.862 32.986 181.617 33.5087 181.291 34.064C180.964 34.6193 180.588 35.191 180.164 35.779C179.87 36.2037 179.429 36.7753 178.841 37.494C178.253 38.18 177.648 38.8823 177.028 39.601C176.407 40.3197 175.884 40.924 175.46 41.414C175.754 41.1527 176.227 40.6953 176.881 40.042C177.567 39.356 178.122 38.7517 178.547 38.229C178.71 38.033 178.955 37.7227 179.282 37.298C179.608 36.8407 179.919 36.416 180.213 36.024C180.539 35.5993 180.735 35.3217 180.801 35.191C180.376 36.073 179.837 36.9223 179.184 37.739C178.53 38.5557 177.877 39.2907 177.224 39.944C176.57 40.5973 176.015 41.1363 175.558 41.561C175.1 41.953 174.839 42.1817 174.774 42.247C173.402 43.6843 172.013 44.9093 170.609 45.922C169.237 46.902 168.061 47.392 167.081 47.392ZM165.513 45.726C165.676 45.726 165.872 45.677 166.101 45.579C166.46 45.383 166.917 45.0727 167.473 44.648C168.061 44.2233 168.665 43.7823 169.286 43.325C169.841 42.8677 170.462 42.3123 171.148 41.659C171.834 40.973 172.585 40.1727 173.402 39.258C174.12 38.4413 174.888 37.5593 175.705 36.612C176.521 35.632 177.322 34.6193 178.106 33.574L177.371 34.26C177.599 34.0313 177.877 33.721 178.204 33.329C178.563 32.9043 178.857 32.5777 179.086 32.349C178.073 32.2837 177.469 32.2347 177.273 32.202C177.24 32.2673 177.191 32.3 177.126 32.3C177.06 32.3 177.028 32.1857 177.028 31.957C177.028 31.8917 177.028 31.81 177.028 31.712C177.028 31.5813 177.044 31.4507 177.077 31.32C176.75 31.2873 176.391 31.3363 175.999 31.467C175.607 31.5977 175.166 31.8753 174.676 32.3C174.12 32.8227 173.402 33.476 172.52 34.26C171.638 35.044 170.723 35.9423 169.776 36.955C168.828 37.935 167.93 38.9967 167.081 40.14C166.264 41.2833 165.611 42.492 165.121 43.766C164.957 44.158 164.876 44.55 164.876 44.942C164.876 45.4973 165.121 45.6607 165.611 45.432C165.447 45.53 165.366 45.5953 165.366 45.628C165.366 45.6933 165.415 45.726 165.513 45.726ZM165.611 45.432C166.231 45.1053 167.211 44.4193 168.551 43.374C169.923 42.296 171.311 40.9893 172.716 39.454C173.173 38.964 173.696 38.4087 174.284 37.788C174.872 37.1347 175.443 36.514 175.999 35.926C176.554 35.338 176.979 34.8807 177.273 34.554C176.521 35.4687 175.819 36.3017 175.166 37.053C174.545 37.7717 173.941 38.4577 173.353 39.111C171.981 40.581 170.576 41.904 169.139 43.08C167.734 44.256 166.558 45.04 165.611 45.432ZM190.509 52.341C190.149 52.341 189.774 52.2757 189.382 52.145C188.99 52.0143 188.647 51.7857 188.353 51.459C188.059 51.165 187.912 50.8873 187.912 50.626C187.912 50.4627 187.977 50.2993 188.108 50.136C188.206 49.9727 188.32 49.8093 188.451 49.646C188.745 49.2867 189.3 48.7967 190.117 48.176C190.933 47.588 191.864 46.9183 192.91 46.167L191.538 47.441C191.407 47.5717 191.276 47.7513 191.146 47.98C191.048 48.2413 191.064 48.3067 191.195 48.176C191.489 47.8167 192.175 47.2123 193.253 46.363C194.331 45.481 195.474 44.5827 196.683 43.668L192.91 46.167C194.02 45.3177 195.164 44.4683 196.34 43.619C197.516 42.7697 198.577 42.002 199.525 41.316C200.505 40.63 201.223 40.1563 201.681 39.895C201.713 39.8623 201.762 39.846 201.828 39.846C201.958 39.846 202.024 39.895 202.024 39.993C202.024 40.1237 201.893 40.238 201.632 40.336C201.24 40.4993 200.57 40.9077 199.623 41.561C198.708 42.1817 197.728 42.884 196.683 43.668C197.957 42.8187 199.165 42.051 200.309 41.365C201.485 40.6463 202.383 40.1073 203.004 39.748C202.612 39.4867 201.975 39.1927 201.093 38.866C200.211 38.5393 199.198 38.1473 198.055 37.69C196.944 37.2 195.801 36.6283 194.625 35.975C193.481 35.3217 192.469 34.554 191.587 33.672C191.162 33.28 190.852 32.8717 190.656 32.447C190.492 31.9897 190.411 31.5487 190.411 31.124C190.411 30.1113 190.819 29.066 191.636 27.988C192.485 26.91 193.596 25.8483 194.968 24.803C196.372 23.7577 197.891 22.7777 199.525 21.863C200.309 21.4383 201.109 21.03 201.926 20.638C202.775 20.2133 203.608 19.8213 204.425 19.462C203.51 19.7887 202.612 20.1317 201.73 20.491C200.848 20.8503 199.998 21.226 199.182 21.618C199.149 21.6507 199.116 21.667 199.084 21.667C199.051 21.667 199.035 21.667 199.035 21.667L199.917 21.128C201.648 20.2787 203.396 19.5437 205.16 18.923C206.956 18.2697 208.655 17.698 210.256 17.208C209.308 17.502 208.345 17.845 207.365 18.237C206.385 18.5963 205.405 19.0047 204.425 19.462C206.352 18.776 208.279 18.188 210.207 17.698C212.167 17.1753 213.98 16.7833 215.646 16.522C217.312 16.228 218.684 16.0647 219.762 16.032C220.382 15.9993 220.693 15.9177 220.693 15.787C220.693 15.689 220.529 15.64 220.203 15.64C219.092 15.6727 217.753 15.787 216.185 15.983C214.617 16.179 212.918 16.5057 211.089 16.963C212.82 16.473 214.453 16.081 215.989 15.787C217.557 15.493 218.912 15.346 220.056 15.346C220.644 15.346 221.183 15.395 221.673 15.493C222.097 15.5583 222.473 15.836 222.8 16.326C223.126 16.7833 223.42 17.3223 223.682 17.943C223.943 18.531 224.123 19.0863 224.221 19.609L224.27 19.462C224.4 19.2333 224.482 19.0373 224.515 18.874C224.547 18.678 224.613 18.4983 224.711 18.335C224.776 18.237 224.923 18.3677 225.152 18.727C225.413 19.0863 225.642 19.4947 225.838 19.952C226.066 20.4093 226.148 20.8013 226.083 21.128C225.985 21.716 225.674 22.3693 225.152 23.088C224.629 23.774 224.008 24.4437 223.29 25.097C222.604 25.7503 221.901 26.2893 221.183 26.714C220.497 27.1387 219.892 27.351 219.37 27.351C219.239 27.351 219.076 27.3183 218.88 27.253C219.272 26.9263 219.631 26.5833 219.958 26.224C220.284 25.8647 220.595 25.5053 220.889 25.146C219.647 26.2567 218.243 27.3183 216.675 28.331C215.139 29.311 213.669 30.1113 212.265 30.732C210.86 31.3527 209.749 31.663 208.933 31.663C208.508 31.663 208.296 31.5813 208.296 31.418C208.296 31.2547 208.475 31.0587 208.835 30.83C209.194 30.5687 209.455 30.389 209.619 30.291C210.403 29.9317 211.366 29.3437 212.51 28.527C213.686 27.7103 214.878 26.812 216.087 25.832C217.295 24.8193 218.357 23.8557 219.272 22.941C220.219 21.9937 220.856 21.226 221.183 20.638C221.215 20.3113 220.97 20.0827 220.448 19.952C219.925 19.8213 219.239 19.756 218.39 19.756C217.312 19.756 216.005 19.8703 214.47 20.099C212.967 20.3277 211.383 20.6543 209.717 21.079C208.051 21.5037 206.45 22.01 204.915 22.598C203.379 23.186 202.04 23.8557 200.897 24.607C200.113 25.0317 199.329 25.5707 198.545 26.224C197.761 26.8447 197.107 27.5143 196.585 28.233C196.062 28.9517 195.801 29.654 195.801 30.34C195.801 30.8953 196.046 31.418 196.536 31.908C197.842 33.084 199.247 34.064 200.75 34.848C202.285 35.632 203.69 36.3343 204.964 36.955C206.27 37.543 207.218 38.1637 207.806 38.817C207.969 38.9803 208.083 39.2253 208.149 39.552C208.247 39.8787 208.296 40.2217 208.296 40.581C208.296 41.2017 208.198 41.7897 208.002 42.345C207.806 42.9003 207.528 43.2107 207.169 43.276C204.425 43.8313 202.073 44.501 200.113 45.285C198.185 46.069 196.617 46.8367 195.409 47.588C194.2 48.3393 193.302 48.96 192.714 49.45C192.158 49.94 191.848 50.1687 191.783 50.136C192.044 50.4953 192.175 50.8383 192.175 51.165C192.175 51.5243 192.011 51.802 191.685 51.998C191.358 52.2267 190.966 52.341 190.509 52.341ZM210.256 17.208L210.452 17.159H210.55L210.697 17.11L210.795 17.061C210.893 17.0283 210.942 17.012 210.942 17.012C210.942 17.012 210.991 16.9957 211.089 16.963C211.089 16.963 211.072 16.963 211.04 16.963C211.04 16.963 210.958 16.9957 210.795 17.061C210.762 17.061 210.729 17.0773 210.697 17.11C210.631 17.11 210.582 17.1263 210.55 17.159C210.517 17.159 210.484 17.1753 210.452 17.208C210.419 17.208 210.419 17.1917 210.452 17.159C210.386 17.1917 210.321 17.208 210.256 17.208ZM217.404 47.343C216.686 47.343 215.918 47.0653 215.101 46.51C214.285 45.9547 213.582 45.3013 212.994 44.55C212.439 43.7987 212.161 43.1127 212.161 42.492C212.161 41.316 212.504 40.0583 213.19 38.719C213.909 37.347 214.824 36.0077 215.934 34.701C217.078 33.3943 218.286 32.2347 219.56 31.222C220.834 30.2093 222.059 29.4743 223.235 29.017C223.562 28.8863 223.856 28.8047 224.117 28.772C224.379 28.7393 224.575 28.723 224.705 28.723C225.097 28.723 225.555 29.0007 226.077 29.556C226.6 30.0787 227.074 30.6503 227.498 31.271C227.923 31.8917 228.168 32.3653 228.233 32.692C228.233 33.2147 227.923 33.8517 227.302 34.603C226.714 35.3217 225.93 36.073 224.95 36.857C223.97 37.6083 222.909 38.3107 221.765 38.964C220.655 39.6173 219.577 40.14 218.531 40.532C217.486 40.8913 216.588 41.0547 215.836 41.022C215.314 41.9693 215.052 42.7533 215.052 43.374C215.052 43.7007 215.134 43.9947 215.297 44.256C215.461 44.4847 215.787 44.5827 216.277 44.55C217.061 44.2887 218.041 43.815 219.217 43.129C220.393 42.443 221.651 41.6753 222.99 40.826C224.362 39.944 225.702 39.0947 227.008 38.278C228.348 37.4287 229.54 36.7263 230.585 36.171C231.141 35.877 231.549 35.73 231.81 35.73C232.039 35.73 232.153 35.8117 232.153 35.975C232.153 36.1057 232.006 36.318 231.712 36.612C231.451 36.906 231.043 37.2 230.487 37.494C230.193 37.6573 229.867 37.8533 229.507 38.082C229.148 38.3107 228.772 38.572 228.38 38.866C227.466 39.5193 226.486 40.2707 225.44 41.12C224.428 41.9693 223.399 42.8187 222.353 43.668C221.341 44.5173 220.393 45.2687 219.511 45.922C218.662 46.5753 217.96 47.049 217.404 47.343ZM216.865 39.405C217.845 39.0457 218.891 38.5393 220.001 37.886C221.112 37.2327 222.157 36.5467 223.137 35.828C224.117 35.0767 224.901 34.407 225.489 33.819L225.734 33.574C225.734 33.5087 225.538 33.623 225.146 33.917L221.03 36.955C220.998 36.9877 220.949 37.004 220.883 37.004C220.851 37.004 220.867 36.9713 220.932 36.906C220.998 36.808 221.112 36.71 221.275 36.612C221.929 36.1547 222.598 35.6483 223.284 35.093C223.97 34.505 224.624 33.9497 225.244 33.427C226.028 32.8063 226.42 32.4307 226.42 32.3C225.669 32.3 224.705 32.6593 223.529 33.378C222.353 34.0967 221.161 34.995 219.952 36.073C218.776 37.151 217.747 38.2617 216.865 39.405ZM234.248 47.343C233.529 47.343 232.762 47.0653 231.945 46.51C231.128 45.9547 230.426 45.3013 229.838 44.55C229.283 43.7987 229.005 43.1127 229.005 42.492C229.005 41.316 229.348 40.0583 230.034 38.719C230.753 37.347 231.667 36.0077 232.778 34.701C233.921 33.3943 235.13 32.2347 236.404 31.222C237.678 30.2093 238.903 29.4743 240.079 29.017C240.406 28.8863 240.7 28.8047 240.961 28.772C241.222 28.7393 241.418 28.723 241.549 28.723C241.941 28.723 242.398 29.0007 242.921 29.556C243.444 30.0787 243.917 30.6503 244.342 31.271C244.767 31.8917 245.012 32.3653 245.077 32.692C245.077 33.2147 244.767 33.8517 244.146 34.603C243.558 35.3217 242.774 36.073 241.794 36.857C240.814 37.6083 239.752 38.3107 238.609 38.964C237.498 39.6173 236.42 40.14 235.375 40.532C234.33 40.8913 233.431 41.0547 232.68 41.022C232.157 41.9693 231.896 42.7533 231.896 43.374C231.896 43.7007 231.978 43.9947 232.141 44.256C232.304 44.4847 232.631 44.5827 233.121 44.55C233.905 44.2887 234.885 43.815 236.061 43.129C237.237 42.443 238.495 41.6753 239.834 40.826C241.206 39.944 242.545 39.0947 243.852 38.278C245.191 37.4287 246.384 36.7263 247.429 36.171C247.984 35.877 248.393 35.73 248.654 35.73C248.883 35.73 248.997 35.8117 248.997 35.975C248.997 36.1057 248.85 36.318 248.556 36.612C248.295 36.906 247.886 37.2 247.331 37.494C247.037 37.6573 246.71 37.8533 246.351 38.082C245.992 38.3107 245.616 38.572 245.224 38.866C244.309 39.5193 243.329 40.2707 242.284 41.12C241.271 41.9693 240.242 42.8187 239.197 43.668C238.184 44.5173 237.237 45.2687 236.355 45.922C235.506 46.5753 234.803 47.049 234.248 47.343ZM233.709 39.405C234.689 39.0457 235.734 38.5393 236.845 37.886C237.956 37.2327 239.001 36.5467 239.981 35.828C240.961 35.0767 241.745 34.407 242.333 33.819L242.578 33.574C242.578 33.5087 242.382 33.623 241.99 33.917L237.874 36.955C237.841 36.9877 237.792 37.004 237.727 37.004C237.694 37.004 237.711 36.9713 237.776 36.906C237.841 36.808 237.956 36.71 238.119 36.612C238.772 36.1547 239.442 35.6483 240.128 35.093C240.814 34.505 241.467 33.9497 242.088 33.427C242.872 32.8063 243.264 32.4307 243.264 32.3C242.513 32.3 241.549 32.6593 240.373 33.378C239.197 34.0967 238.005 34.995 236.796 36.073C235.62 37.151 234.591 38.2617 233.709 39.405ZM292.149 54.252C291.038 54.0233 290.336 53.566 290.042 52.88C289.781 52.2267 289.617 51.4917 289.552 50.675L289.209 49.695C289.046 49.1397 288.964 48.5353 288.964 47.882C288.964 46.6407 289.144 45.1707 289.503 43.472C289.862 41.7733 290.303 40.0257 290.826 38.229C291.381 36.4323 291.937 34.7337 292.492 33.133C293.08 31.5323 293.586 30.193 294.011 29.115C294.436 28.037 294.713 27.3837 294.844 27.155C294.387 27.6123 293.668 28.3147 292.688 29.262C291.708 30.1767 290.614 31.2383 289.405 32.447C288.196 33.623 287.004 34.8153 285.828 36.024C284.685 37.2327 283.688 38.3597 282.839 39.405C281.99 40.4503 281.434 41.2997 281.173 41.953C280.552 41.8877 280.062 41.5447 279.703 40.924C279.376 40.2707 279.213 39.65 279.213 39.062C279.213 38.6047 279.442 37.8533 279.899 36.808C280.389 35.73 280.993 34.5377 281.712 33.231C282.431 31.8917 283.166 30.585 283.917 29.311C284.701 28.0043 285.403 26.8447 286.024 25.832C286.677 24.8193 287.151 24.117 287.445 23.725C287.445 23.725 287.102 24.0027 286.416 24.558C285.763 25.1133 284.897 25.8483 283.819 26.763C282.741 27.645 281.549 28.6413 280.242 29.752C278.935 30.83 277.612 31.9407 276.273 33.084C274.966 34.1947 273.725 35.2727 272.549 36.318C271.406 37.3307 270.458 38.2127 269.707 38.964C269.674 39.0293 269.854 38.915 270.246 38.621C270.638 38.2943 271.128 37.886 271.716 37.396C272.337 36.8733 272.941 36.367 273.529 35.877C274.15 35.387 274.656 34.9787 275.048 34.652C275.44 34.3253 275.62 34.1947 275.587 34.26C273.856 35.8607 272.484 37.102 271.471 37.984C270.491 38.866 269.723 39.5847 269.168 40.14C268.907 40.4013 268.596 40.826 268.237 41.414C267.91 42.002 267.633 42.6227 267.404 43.276C267.175 43.9293 267.061 44.55 267.061 45.138C267.061 45.7587 267.224 46.216 267.551 46.51C267.714 46.6407 267.845 46.7713 267.943 46.902C268.041 47.0327 268.09 47.147 268.09 47.245C268.09 47.4083 267.91 47.49 267.551 47.49C266.8 47.4247 266.146 47.147 265.591 46.657C265.036 46.167 264.611 45.628 264.317 45.04C264.023 44.4193 263.876 43.8803 263.876 43.423C263.876 42.8677 264.203 41.9857 264.856 40.777C265.509 39.5683 266.359 38.1637 267.404 36.563C268.482 34.9297 269.642 33.231 270.883 31.467C272.124 29.703 273.366 27.988 274.607 26.322C275.848 24.656 276.959 23.1697 277.939 21.863C278.919 20.5237 279.67 19.511 280.193 18.825C279.54 19.3477 279.001 19.9193 278.576 20.54C278.184 21.128 277.825 21.4547 277.498 21.52C277.89 21.0627 278.413 20.4583 279.066 19.707C279.719 18.9557 280.128 18.2697 280.291 17.649C280.03 17.5837 279.736 17.551 279.409 17.551C279.082 17.551 278.739 17.551 278.38 17.551C276.845 17.551 274.983 17.6817 272.794 17.943C270.605 18.2043 268.531 18.5473 266.571 18.972C266.244 19.0373 265.689 19.217 264.905 19.511C264.121 19.7723 263.223 20.1153 262.21 20.54C261.23 20.9647 260.25 21.4547 259.27 22.01C258.29 22.5653 257.441 23.1697 256.722 23.823C256.036 24.4437 255.595 25.097 255.399 25.783C255.53 26.0443 255.595 26.2893 255.595 26.518C255.595 26.9753 255.366 27.204 254.909 27.204C254.517 27.204 254.092 26.9753 253.635 26.518C253.178 26.0607 252.949 25.4237 252.949 24.607C252.949 24.1823 253.014 23.774 253.145 23.382C253.472 22.3367 254.043 21.422 254.86 20.638C255.677 19.854 256.624 19.168 257.702 18.58C258.813 17.992 259.956 17.502 261.132 17.11C262.308 16.718 263.419 16.4077 264.464 16.179C265.509 15.9177 266.8 15.7217 268.335 15.591C269.87 15.4603 271.471 15.395 273.137 15.395C274.411 15.395 275.685 15.444 276.959 15.542C278.233 15.64 279.425 15.8033 280.536 16.032V15.885C280.536 15.6563 280.667 15.542 280.928 15.542C280.993 15.542 281.157 15.5747 281.418 15.64C281.81 15.7707 282.316 15.9993 282.937 16.326C283.558 16.6527 284.097 17.0447 284.554 17.502C285.044 17.9267 285.289 18.384 285.289 18.874C285.289 19.0373 285.273 19.168 285.24 19.266C284.162 20.4093 282.937 21.765 281.565 23.333C280.226 24.901 278.854 26.567 277.449 28.331C276.044 30.0623 274.689 31.8263 273.382 33.623C274.525 32.643 275.799 31.5487 277.204 30.34C278.641 29.0987 280.079 27.8737 281.516 26.665C282.986 25.4563 284.325 24.3457 285.534 23.333C286.775 22.3203 287.755 21.5363 288.474 20.981C288.801 20.981 289.225 21.1443 289.748 21.471C290.303 21.7977 290.793 22.1733 291.218 22.598C291.675 23.0227 291.904 23.4147 291.904 23.774C291.61 24.264 291.185 24.9173 290.63 25.734C290.075 26.5507 289.487 27.4163 288.866 28.331C288.245 29.2457 287.641 30.1277 287.053 30.977C286.465 31.8263 285.975 32.545 285.583 33.133C285.714 33.035 286.106 32.643 286.759 31.957C287.445 31.271 288.262 30.4543 289.209 29.507C290.189 28.5597 291.169 27.6287 292.149 26.714C293.162 25.7667 294.044 24.9827 294.795 24.362C295.579 23.7087 296.085 23.3657 296.314 23.333C296.477 23.333 296.771 23.4963 297.196 23.823C297.621 24.117 298.062 24.4927 298.519 24.95C298.976 25.4073 299.336 25.8483 299.597 26.273C299.891 26.665 299.989 26.9427 299.891 27.106C298.421 29.0333 297.147 31.1077 296.069 33.329C295.024 35.5503 294.142 37.7227 293.423 39.846C293.978 38.474 294.55 37.1183 295.138 35.779C295.726 34.4397 296.298 33.2147 296.853 32.104C297.441 30.9933 297.931 30.1113 298.323 29.458C298.388 29.3927 298.421 29.36 298.421 29.36C298.454 29.36 298.437 29.458 298.372 29.654C298.307 29.85 298.192 30.0787 298.029 30.34C297.833 30.6667 297.506 31.32 297.049 32.3C296.624 33.28 296.134 34.4397 295.579 35.779C295.024 37.1183 294.468 38.4903 293.913 39.895C293.39 41.2997 292.917 42.639 292.492 43.913C292.1 45.1543 291.839 46.167 291.708 46.951C291.479 48.0617 291.316 48.8293 291.218 49.254C291.153 49.7113 291.104 49.744 291.071 49.352L290.924 50.626C291.414 50.6913 291.871 50.773 292.296 50.871C292.753 51.0017 292.982 51.0997 292.982 51.165C293.897 51.2957 294.566 51.4917 294.991 51.753C295.416 52.047 295.628 52.341 295.628 52.635C295.628 52.9617 295.334 53.272 294.746 53.566C294.158 53.8927 293.292 54.1213 292.149 54.252ZM291.071 49.254C291.267 48.1107 291.545 46.7223 291.904 45.089C292.296 43.4557 292.802 41.708 293.423 39.846C292.802 41.4793 292.263 43.0473 291.806 44.55C291.381 46.0527 291.153 47.3103 291.12 48.323C291.087 48.519 291.071 48.6987 291.071 48.862C291.071 49.0253 291.071 49.156 291.071 49.254ZM302.883 47.392C302.426 47.392 301.936 47.294 301.413 47.098C300.923 46.9347 300.482 46.6733 300.09 46.314C299.698 45.9547 299.274 45.4157 298.816 44.697C298.392 43.9457 298.179 43.2107 298.179 42.492C298.179 42.198 298.228 41.9367 298.326 41.708C299.372 38.8987 301.07 36.3343 303.422 34.015C305.774 31.663 308.649 29.6867 312.046 28.086C312.504 28.086 312.977 28.2657 313.467 28.625C313.957 28.9517 314.366 29.36 314.692 29.85L315.574 30.144C315.542 29.7847 315.427 29.5723 315.231 29.507C315.035 29.409 314.937 29.2783 314.937 29.115C315.003 28.821 315.215 28.6577 315.574 28.625C315.934 28.5597 316.195 28.527 316.358 28.527C316.881 28.527 317.306 28.772 317.632 29.262C317.992 29.7193 318.188 30.2257 318.22 30.781C319.004 30.879 319.821 30.9443 320.67 30.977C321.52 31.0097 322.255 31.0423 322.875 31.075C323.529 31.075 323.888 31.075 323.953 31.075H324.1C324.198 31.075 324.247 31.1403 324.247 31.271C324.247 31.4997 324.117 31.6957 323.855 31.859C323.529 32.1203 322.761 32.3 321.552 32.398C320.376 32.4633 319.135 32.496 317.828 32.496C317.665 32.986 317.42 33.5087 317.093 34.064C316.767 34.6193 316.391 35.191 315.966 35.779C315.672 36.2037 315.231 36.7753 314.643 37.494C314.055 38.18 313.451 38.8823 312.83 39.601C312.21 40.3197 311.687 40.924 311.262 41.414C311.556 41.1527 312.03 40.6953 312.683 40.042C313.369 39.356 313.925 38.7517 314.349 38.229C314.513 38.033 314.758 37.7227 315.084 37.298C315.411 36.8407 315.721 36.416 316.015 36.024C316.342 35.5993 316.538 35.3217 316.603 35.191C316.179 36.073 315.64 36.9223 314.986 37.739C314.333 38.5557 313.68 39.2907 313.026 39.944C312.373 40.5973 311.818 41.1363 311.36 41.561C310.903 41.953 310.642 42.1817 310.576 42.247C309.204 43.6843 307.816 44.9093 306.411 45.922C305.039 46.902 303.863 47.392 302.883 47.392ZM301.315 45.726C301.479 45.726 301.675 45.677 301.903 45.579C302.263 45.383 302.72 45.0727 303.275 44.648C303.863 44.2233 304.468 43.7823 305.088 43.325C305.644 42.8677 306.264 42.3123 306.95 41.659C307.636 40.973 308.388 40.1727 309.204 39.258C309.923 38.4413 310.691 37.5593 311.507 36.612C312.324 35.632 313.124 34.6193 313.908 33.574L313.173 34.26C313.402 34.0313 313.68 33.721 314.006 33.329C314.366 32.9043 314.66 32.5777 314.888 32.349C313.876 32.2837 313.271 32.2347 313.075 32.202C313.043 32.2673 312.994 32.3 312.928 32.3C312.863 32.3 312.83 32.1857 312.83 31.957C312.83 31.8917 312.83 31.81 312.83 31.712C312.83 31.5813 312.847 31.4507 312.879 31.32C312.553 31.2873 312.193 31.3363 311.801 31.467C311.409 31.5977 310.968 31.8753 310.478 32.3C309.923 32.8227 309.204 33.476 308.322 34.26C307.44 35.044 306.526 35.9423 305.578 36.955C304.631 37.935 303.733 38.9967 302.883 40.14C302.067 41.2833 301.413 42.492 300.923 43.766C300.76 44.158 300.678 44.55 300.678 44.942C300.678 45.4973 300.923 45.6607 301.413 45.432C301.25 45.53 301.168 45.5953 301.168 45.628C301.168 45.6933 301.217 45.726 301.315 45.726ZM301.413 45.432C302.034 45.1053 303.014 44.4193 304.353 43.374C305.725 42.296 307.114 40.9893 308.518 39.454C308.976 38.964 309.498 38.4087 310.086 37.788C310.674 37.1347 311.246 36.514 311.801 35.926C312.357 35.338 312.781 34.8807 313.075 34.554C312.324 35.4687 311.622 36.3017 310.968 37.053C310.348 37.7717 309.743 38.4577 309.155 39.111C307.783 40.581 306.379 41.904 304.941 43.08C303.537 44.256 302.361 45.04 301.413 45.432ZM318.084 47C317.529 46.9347 317.088 46.6243 316.761 46.069C316.435 45.481 316.271 44.9257 316.271 44.403C316.271 43.9783 316.5 43.3087 316.957 42.394C317.447 41.4793 318.052 40.4503 318.77 39.307C319.522 38.131 320.289 36.9877 321.073 35.877C321.89 34.7337 322.609 33.721 323.229 32.839C323.883 31.957 324.34 31.3363 324.601 30.977C324.177 31.369 323.785 31.761 323.425 32.153C323.066 32.545 322.854 32.741 322.788 32.741C322.756 32.741 322.919 32.447 323.278 31.859C323.67 31.2383 324.422 30.1277 325.532 28.527C325.859 28.527 326.251 28.7067 326.708 29.066C327.166 29.4253 327.574 29.8337 327.933 30.291C328.293 30.7483 328.472 31.1403 328.472 31.467C328.113 32.055 327.541 32.8063 326.757 33.721C326.006 34.603 325.206 35.5177 324.356 36.465C323.54 37.4123 322.805 38.278 322.151 39.062C322.249 38.964 322.641 38.621 323.327 38.033C324.046 37.445 324.928 36.71 325.973 35.828C327.019 34.946 328.129 34.015 329.305 33.035C330.514 32.055 331.657 31.1403 332.735 30.291C333.813 29.409 334.728 28.7067 335.479 28.184C336.263 27.6287 336.753 27.351 336.949 27.351C337.145 27.351 337.423 27.547 337.782 27.939C338.174 28.2983 338.534 28.7067 338.86 29.164C339.187 29.6213 339.35 29.997 339.35 30.291C339.35 30.3237 339.105 30.6013 338.615 31.124C338.158 31.6467 337.57 32.3163 336.851 33.133C336.165 33.917 335.479 34.75 334.793 35.632C334.107 36.4813 333.519 37.2817 333.029 38.033C332.572 38.7843 332.36 39.3397 332.392 39.699C332.066 39.6337 331.788 39.3397 331.559 38.817C331.331 38.2617 331.216 37.641 331.216 36.955C331.216 36.563 331.331 36.0893 331.559 35.534C331.821 34.9787 332.098 34.4397 332.392 33.917C332.719 33.3943 332.997 32.937 333.225 32.545C333.487 32.153 333.617 31.9407 333.617 31.908C333.421 32.1367 333.144 32.5123 332.784 33.035C332.458 33.5577 332.131 34.0803 331.804 34.603C331.51 35.093 331.314 35.4523 331.216 35.681C331.314 35.289 331.592 34.652 332.049 33.77C332.507 32.888 333.111 32.006 333.862 31.124C333.503 31.4507 332.882 32.006 332 32.79C331.151 33.5413 330.171 34.4397 329.06 35.485C327.95 36.5303 326.79 37.6247 325.581 38.768C324.405 39.8787 323.278 40.973 322.2 42.051C321.122 43.129 320.208 44.109 319.456 44.991C318.738 45.8403 318.28 46.51 318.084 47ZM338.995 47.343C338.277 47.343 337.509 47.0653 336.692 46.51C335.876 45.9547 335.173 45.3013 334.585 44.55C334.03 43.7987 333.752 43.1127 333.752 42.492C333.752 41.316 334.095 40.0583 334.781 38.719C335.5 37.347 336.415 36.0077 337.525 34.701C338.669 33.3943 339.877 32.2347 341.151 31.222C342.425 30.2093 343.65 29.4743 344.826 29.017C345.153 28.8863 345.447 28.8047 345.708 28.772C345.97 28.7393 346.166 28.723 346.296 28.723C346.688 28.723 347.146 29.0007 347.668 29.556C348.191 30.0787 348.665 30.6503 349.089 31.271C349.514 31.8917 349.759 32.3653 349.824 32.692C349.824 33.2147 349.514 33.8517 348.893 34.603C348.305 35.3217 347.521 36.073 346.541 36.857C345.561 37.6083 344.5 38.3107 343.356 38.964C342.246 39.6173 341.168 40.14 340.122 40.532C339.077 40.8913 338.179 41.0547 337.427 41.022C336.905 41.9693 336.643 42.7533 336.643 43.374C336.643 43.7007 336.725 43.9947 336.888 44.256C337.052 44.4847 337.378 44.5827 337.868 44.55C338.652 44.2887 339.632 43.815 340.808 43.129C341.984 42.443 343.242 41.6753 344.581 40.826C345.953 39.944 347.293 39.0947 348.599 38.278C349.939 37.4287 351.131 36.7263 352.176 36.171C352.732 35.877 353.14 35.73 353.401 35.73C353.63 35.73 353.744 35.8117 353.744 35.975C353.744 36.1057 353.597 36.318 353.303 36.612C353.042 36.906 352.634 37.2 352.078 37.494C351.784 37.6573 351.458 37.8533 351.098 38.082C350.739 38.3107 350.363 38.572 349.971 38.866C349.057 39.5193 348.077 40.2707 347.031 41.12C346.019 41.9693 344.99 42.8187 343.944 43.668C342.932 44.5173 341.984 45.2687 341.102 45.922C340.253 46.5753 339.551 47.049 338.995 47.343ZM338.456 39.405C339.436 39.0457 340.482 38.5393 341.592 37.886C342.703 37.2327 343.748 36.5467 344.728 35.828C345.708 35.0767 346.492 34.407 347.08 33.819L347.325 33.574C347.325 33.5087 347.129 33.623 346.737 33.917L342.621 36.955C342.589 36.9877 342.54 37.004 342.474 37.004C342.442 37.004 342.458 36.9713 342.523 36.906C342.589 36.808 342.703 36.71 342.866 36.612C343.52 36.1547 344.189 35.6483 344.875 35.093C345.561 34.505 346.215 33.9497 346.835 33.427C347.619 32.8063 348.011 32.4307 348.011 32.3C347.26 32.3 346.296 32.6593 345.12 33.378C343.944 34.0967 342.752 34.995 341.543 36.073C340.367 37.151 339.338 38.2617 338.456 39.405Z" fill="black"/>
</g>
<g id="Group 10">
<g id="Rectangle 5" filter="url(#filter1_d_144_7)">
<path d="M4 69.9025C4 69.9025 202.806 52.3498 202.806 69.9025C202.806 87.4551 401.613 47.8365 401.613 47.8365V69.9025C401.613 69.9025 202.806 109.02 202.806 92.9716C202.806 76.9237 4 92.9716 4 92.9716V69.9025Z" fill="black"/>
</g>
<g id="Polygon 1" filter="url(#filter2_d_144_7)">
<path d="M429.222 46.918L396.72 84.7488L372.007 43.3216L429.222 46.918Z" fill="black"/>
</g>
</g>
</g>
<defs>
<filter id="filter0_d_144_7" x="34.069" y="15.346" width="332.675" height="54.746" filterUnits="userSpaceOnUse" color-interpolation-filters="sRGB">
<feFlood flood-opacity="0" result="BackgroundImageFix"/>
<feColorMatrix in="SourceAlpha" type="matrix" values="0 0 0 0 0 0 0 0 0 0 0 0 0 0 0 0 0 0 127 0" result="hardAlpha"/>
<feOffset dx="9" dy="4"/>
<feGaussianBlur stdDeviation="2"/>
<feComposite in2="hardAlpha" operator="out"/>
<feColorMatrix type="matrix" values="0 0 0 0 0 0 0 0 0 0 0 0 0 0 0 0 0 0 0.4 0"/>
<feBlend mode="normal" in2="BackgroundImageFix" result="effect1_dropShadow_144_7"/>
<feBlend mode="normal" in="SourceGraphic" in2="effect1_dropShadow_144_7" result="shape"/>
</filter>
<filter id="filter1_d_144_7" x="0" y="47.8365" width="405.613" height="57" filterUnits="userSpaceOnUse" color-interpolation-filters="sRGB">
<feFlood flood-opacity="0" result="BackgroundImageFix"/>
<feColorMatrix in="SourceAlpha" type="matrix" values="0 0 0 0 0 0 0 0 0 0 0 0 0 0 0 0 0 0 127 0" result="hardAlpha"/>
<feOffset dy="4"/>
<feGaussianBlur stdDeviation="2"/>
<feComposite in2="hardAlpha" operator="out"/>
<feColorMatrix type="matrix" values="0 0 0 0 0 0 0 0 0 0 0 0 0 0 0 0 0 0 0.25 0"/>
<feBlend mode="normal" in2="BackgroundImageFix" result="effect1_dropShadow_144_7"/>
<feBlend mode="normal" in="SourceGraphic" in2="effect1_dropShadow_144_7" result="shape"/>
</filter>
<filter id="filter2_d_144_7" x="368.007" y="43.3216" width="65.2156" height="49.4272" filterUnits="userSpaceOnUse" color-interpolation-filters="sRGB">
<feFlood flood-opacity="0" result="BackgroundImageFix"/>
<feColorMatrix in="SourceAlpha" type="matrix" values="0 0 0 0 0 0 0 0 0 0 0 0 0 0 0 0 0 0 127 0" result="hardAlpha"/>
<feOffset dy="4"/>
<feGaussianBlur stdDeviation="2"/>
<feComposite in2="hardAlpha" operator="out"/>
<feColorMatrix type="matrix" values="0 0 0 0 0 0 0 0 0 0 0 0 0 0 0 0 0 0 0.25 0"/>
<feBlend mode="normal" in2="BackgroundImageFix" result="effect1_dropShadow_144_7"/>
<feBlend mode="normal" in="SourceGraphic" in2="effect1_dropShadow_144_7" result="shape"/>
</filter>
</defs>
</svg>
